<?xml version="1.0" encoding="UTF-8"?>
<svg id="Layer_1" data-name="Layer 1" xmlns="http://www.w3.org/2000/svg" viewBox="0 0 1467.72 446.64">
  <defs>
    <style>
      .cls-1 {
        stroke-width: 0px;
      }
    </style>
  </defs>
  <path class="cls-1" d="M337.56,437.58c-1.74-.01-2.98-9.96-3.26-12.3-6.09-96.18-12.17-192.36-18.26-288.53-2.15-1.78-4.13-2.79-5.51-3.39-2.5-1.08-4.51-1.4-21.27.16-1.96.18-4.22.42-5.77,2.17-1.48,1.67-1.59,3.9-1.53,5.13,1.24,53.02,2.49,106.04,3.73,159.06-.1.43-.73,3.13-2.38,3.46-1.05.21-2.15-.54-2.88-1.42-7.16-8.59-9.9-14.8-9.9-14.8-5.44-13.18-25.39-56.83-71.31-74.46-10.86-4.17-21.24-6.14-30.41-6.92.15-.93.42-2.49.86-4.4,8.24-36.26,42.64-57.22,38.15-64.21-.95-1.48-3.78-3.38-6.13-3.74-8.55-1.33-9.33-3.52-5.9-11.36,1.38-3.17,3.35-5.43,5.56-7.71,2.55-2.63,6.42-6.14,11.88-9.52,42.11.08,84.23.16,126.34.24,2.12,7.14,4.08,15.88,5.01,25.95.6,6.5.67,12.48.45,17.8-1.33,92.03-2.66,184.07-3.99,276.1-.28,2.19-1.67,12.71-3.46,12.7ZM267.54,199.26c-1.77-18.11-6.01-57.93-23.51-65.05-4.06-1.65-8.07-1.41-8.07-1.41-8.83.54-14.95,7.96-18.55,12.45-20.5,25.59-30.75,38.39-27.86,46.18,2.86,7.7,10.82,6.47,27.97,15.43,31.12,16.26,39.67,38.42,47.59,35.05,6.32-2.69,4.78-18.49,2.41-42.66Z"/>
  <path class="cls-1" d="M749.47,437.58c-1.74-.01-2.98-9.96-3.26-12.3-6.09-96.18-12.17-192.36-18.26-288.53-2.15-1.78-4.13-2.79-5.51-3.39-2.5-1.08-4.51-1.4-21.27.16-1.96.18-4.22.42-5.77,2.17-1.48,1.67-1.59,3.9-1.53,5.13,1.24,53.02,2.49,106.04,3.73,159.06-.1.43-.73,3.13-2.38,3.46-1.05.21-2.15-.54-2.88-1.42-7.16-8.59-9.9-14.8-9.9-14.8-5.44-13.18-25.39-56.83-71.31-74.46-10.86-4.17-21.24-6.14-30.41-6.92.15-.93.42-2.49.86-4.4,8.24-36.26,42.64-57.22,38.15-64.21-.95-1.48-3.78-3.38-6.13-3.74-8.55-1.33-9.33-3.52-5.9-11.36,1.38-3.17,3.35-5.43,5.56-7.71,2.55-2.63,6.42-6.14,11.88-9.52,42.11.08,84.23.16,126.34.24,2.12,7.14,4.08,15.88,5.01,25.95.6,6.5.67,12.48.45,17.8-1.33,92.03-2.66,184.07-3.99,276.1-.28,2.19-1.67,12.71-3.46,12.7ZM679.45,199.26c-1.77-18.11-6.01-57.93-23.51-65.05-4.06-1.65-8.07-1.41-8.07-1.41-8.83.54-14.95,7.96-18.55,12.45-20.5,25.59-30.75,38.39-27.86,46.18,2.86,7.7,10.82,6.47,27.97,15.43,31.12,16.26,39.67,38.42,47.59,35.05,6.32-2.69,4.78-18.49,2.41-42.66Z"/>
  <path class="cls-1" d="M1357.2,437.58c-1.74-.01-2.98-9.96-3.26-12.3-6.09-96.18-12.17-192.36-18.26-288.53-2.15-1.78-4.13-2.79-5.51-3.39-2.5-1.08-4.51-1.4-21.27.16-1.96.18-4.22.42-5.77,2.17-1.48,1.67-1.59,3.9-1.53,5.13,1.24,53.02,2.49,106.04,3.73,159.06-.1.43-.73,3.13-2.38,3.46-1.05.21-2.15-.54-2.88-1.42-7.16-8.59-9.9-14.8-9.9-14.8-5.44-13.18-25.39-56.83-71.31-74.46-10.86-4.17-21.24-6.14-30.41-6.92.15-.93.42-2.49.86-4.4,8.24-36.26,42.64-57.22,38.15-64.21-.95-1.48-3.78-3.38-6.13-3.74-8.55-1.33-9.33-3.52-5.9-11.36,1.38-3.17,3.35-5.43,5.56-7.71,2.55-2.63,6.42-6.14,11.88-9.52,42.11.08,84.23.16,126.34.24,2.12,7.14,4.08,15.88,5.01,25.95.6,6.5.67,12.48.45,17.8-1.33,92.03-2.66,184.07-3.99,276.1-.28,2.19-1.67,12.71-3.46,12.7ZM1287.18,199.26c-1.77-18.11-6.01-57.93-23.51-65.05-4.06-1.65-8.07-1.41-8.07-1.41-8.83.54-14.95,7.96-18.55,12.45-20.5,25.59-30.75,38.39-27.86,46.18,2.86,7.7,10.82,6.47,27.97,15.43,31.12,16.26,39.67,38.42,47.59,35.05,6.32-2.69,4.78-18.49,2.41-42.66Z"/>
  <path class="cls-1" d="M965.96,290.14c.01.15.31,3.76-1.83,5.05-2.53,1.52-6.16-1.59-6.6-1.97-2.73-2.34-3.51-5.55-3.64-6.05-2.99-11.57-58.98-132.52-96.94-137.89-7.41-1.05-13.19.91-13.19.91-5.93,2.01-10.87,7.37-20.5,18.02-3.32,3.67-4.16,4.83-4.37,5.76,0,0-.05.27-.07.54-.35,4.56,33.64,21.91,50.21,39.36,5.39,5.67,12.12,14.71,16.83,28.96-10.45-11.3-26.6-25.27-49.3-34.43-14.11-5.7-33.72-13.61-53.18-5.63-4.63,1.9-8.14,4.24-10.45,5.99-.15-1.54-.2-4.03.63-6.88.29-.98,1.18-3.75,3.87-7.01,3.48-4.22,7.49-6.29,8.3-6.73,12.53-6.73,39.1-41.11,33.09-49.02-.82-1.08-2.82-2.71-5.11-3.15-2.7-.51-5.53-.4-8.19-1.03-4.76-1.13-5.52-3.76-2.64-7.71,9.19-12.64,8.31-15.66,13.97-19.23,1.2-.75,3.04-1.79,5.5-2.68,23.43-.17,46.86-.35,70.29-.52,4.34-.31,6.1,1.18,6.73,1.84,3.68,3.86.9,13.55-4.51,18.49-2.3,2.1-3.19,1.61-4.5,3.53-3.43,5.05,1.39,13.89,3.22,17.18,11.58,20.8,17.36,31.19,27.36,46.49,16.38,25.08,22.84,42.11,28.75,40.62,1.87-.47,2.95-2.61,3.55-4.23,1.43-70.8-4.31-89.45-10.65-91.19-1.23-.34-7.97-1.55-9.35-5.79-.66-2.02.11-4.11.87-5.56,6.93-7.81,13.36-13.16,18.01-16.64,4.87-3.64,7.11-4.7,9-4.02,4.77,1.72,4.56,13.46,4.5,17.2-.27,18.67-.03,79.89.33,167.44Z"/>
  <path class="cls-1" d="M87.5,191.7c10.1,2.18,16.64,6.94,24.5,12.77,62.33,46.17,46.13,186.59,47.66,204.6,0,0,.23,6.11-.22,9.09-.13.86-.23.86-.04,2.11.11.71.3,2.57-.39,4.67-1.24,3.74-4.23,4.44-6.48,1.25-1.7-2.41-2.24-4.83-2.54-7.54-.64-5.64-.96-8.46-.94-9.59.24-12.56-4.85-51.79-11-82.45-.62-3.11-1.02-5.09-1.64-7.88-7.89-35.38-17.69-79.28-49.48-96.62-14.08-7.68-31.73-9.74-37.49-10.41-2.51-.29-8.76-.09-21.27-.26-6.3-.09-11.68,1.42-16.84,5.68-2.45,2.03-7.47.95-11.32,1.28.23-5.1-.58-10.53.94-15.21,2.12-6.52,5.87-12.54,9.12-18.67,2.53-4.76,5.35-9.36,8.03-14.04,10.78-18.86,11.65-21.56,10.46-24.15-.92-2.01-4.5-4.9-11.64-10.72-1.94-1.58-3.07-3.08-3.06-4.64.02-1.76,1.43-3.05,2.45-3.96,6.02-5.39,9.03-8.09,9.42-8.34,3.42-2.27,7.79-6.32,11.74-14.15,37.34.16,74.68.31,112.02.47.89-.19,2.66-.44,4.7.21.99.32,3.09,1,3.71,2.63.56,1.48-.3,3.22-1.36,4.72-8.43,11.88-20.39,17.98-20.39,17.98-18.02,9.19-27.03,13.79-36,14.77-10.83,1.18-16.77-1.06-38.98.39-3.53.23-7.05.53-11.3,2.17-2.12.82-5.39,2.35-18.51,15.52,0,0-8.9,8.93-12.37,17.01-.45,1.05-1.15,3.22-.86,5.82.17,1.5.67,2.61,1.43,3.41,1.6,1.69,4.14,1.75,5.27,1.74,8.79-.05,44.27-3.65,62.67.32Z"/>
  <path class="cls-1" d="M1176.01,301.39c-4.55-6.86-11.1-15.97-19.86-25.95-9.94-11.33-23.9-27.25-46.06-40.77-11.48-7.01-48.32-29.48-80.8-25.31-4.38.56-18.49,2.87-20.37-1.5-.73-1.69.57-3.9,1.83-5.54,0,0,5.34-7.02,24.65-37.39,6.2-9.75,14.54-22.86,9.97-30.09-4.75-7.52-20.97-4.68-22.5-11.44-.38-1.68.34-3.1,1.3-4.94,4.9-9.39,16.69-12.09,20.2-12.78,12.6-.18,25.2-.35,37.8-.53.62.07,1.27.19,1.97.37,2.56.65,4.51,1.86,5.82,2.87-1.64,11.92-5.37,14.12-6.56,14.64-.72.31-3.42,1.29-5.59,2.04-2.34.8-3.92,1.29-4.3,1.41-5.07,1.66-9.27,8.96-10.39,10.89-4.45,7.62-15.45,24.47-20.87,31.73-.88,1.19-2.6,3.93-2.34,6.98.22,2.52,2.89,3.88,4.26,4.67,13.29,7.61,26.88,8.38,26.88,8.38,6.6.37,12.56.71,19.81-1.32,8.86-2.48,9.35-5.62,31.03-23.47,8.31-6.85,18.49-14.82,20.9-24.92.62-2.57.48-4.24-.16-5.63-2.9-6.33-14.65-3.58-16.24-7.88-2.02-5.46,14.86-15.57,17.85-17.36,0,0,3.51-2.1,10.49-3.58.58-.12,1.5-.3,2.61-.03,2.9.71,4.37,3.85,4.86,5.03,2.16,13.92,4.12,28.19,5.84,42.79,6.21,52.73,8.41,102.49,7.96,148.62ZM1144.47,168.9c-3.91-.85-5.13,2.13-26.59,17.31-11.77,8.33-15.35,10.22-15.27,13.67.14,6.2,11.9,7.8,24.6,16.08,24.33,15.85,28.4,40.72,33.76,39.07,5.79-1.79,1.23-30.79-.48-41.64-3.67-23.32-6.68-42.46-16.02-44.48Z"/>
  <path class="cls-1" d="M420.92,218.97c-.8-1.65-2.04-4.14-3.64-7.12-13.37-24.98-21.98-28.61-25.29-39.86-5.04-17.13,7.28-34.64,11.41-40.5,2.78-3.96,17.1-24.3,43.24-26.55,2.16-.19,29.47-2.12,45.02,17.15,7.88,9.76,9.83,21.34,10.18,23.58.41,2.65,1.08,7.23.05,13-.71,4.01-1.93,6.8-3.63,10.58-2.4,5.33-5.48,11.97-9.25,19.63,8.93,3.62,23.14,10.69,36.9,24.12,15.28,14.92,22.89,30.75,26.53,40.03-4.32-38.59-8.64-77.19-12.96-115.78-1.27-.08-11.74-.83-12.75-5.26-.42-1.85.97-3.63,1.86-4.72,9.29-11.43,16.78-20.63,24.68-18.74,1.17.28,11.04.88,10.81,12.65-.31,16.13-.98,32.27-.71,48.39.46,26.74,1.71,53.47,2.31,80.22.37,16.47.27,32.96.09,49.44-.03,2.33-1.74,4.65-2.67,6.97-1.92-1.84-4.29-3.39-5.66-5.57-3.21-5.1-5.82-10.57-8.89-15.76-3.1-5.25-6.21-10.53-9.76-15.47-4.16-5.79-8.72-11.31-13.27-16.8-7.54-9.09-11.42-13.54-14.8-16.81-3.81-3.69-17.64-16.5-39.79-24.22-8.08-2.82-15.25-4.25-20.72-5.03.99-2.37,2.79-5.91,6.01-9.44,3.34-3.66,6.84-5.8,9.16-6.99,2.04-.02,5.9-.36,9.41-2.89,1.06-.77,4.78-3.67,6.66-11.88,2.58-11.29,1.85-33.3-14.37-44.06-6.22-4.13-12.25-4.96-14.95-5.31-3.02-.38-21.61-2.75-31.11,10.37-7.41,10.24-5.51,24.67-.21,32.62,2.38,3.57,4.39,4.26,6.62,9.02,3.41,7.28,3.03,14.35,2.4,17.81-1.09,6.06-3.75,11.85-5.84,17.71-.49,1.37-1.41,2.58-3.06,5.5Z"/>
  <path class="cls-1" d="M1168.21,317.94c17.83-.47,31.69,14.14,37.62,26.05,12.01,24.11.62,55.58-19.9,69.46-6.22,4.21-25.83,17.47-47.51,6.63h0c-28.56-14.28-59.18-54.27-98.76-83.56-16.66-12.33-29.83-19.01-28.94-20.74.97-1.89,17.82,4.03,32.69,11.93,13.57,7.21,21.91,14.16,37,26.89,44.97,37.94,51.82,43.95,65.11,45.66,4.03.52,20.86,2.69,33.28-8.04,11.69-10.09,18.24-30.52,9.16-42.93-6-8.2-18.01-11.78-27.01-10.13-4.07.75-5.17,2.13-23.63,9.65-7.72,3.14-8.38,3.25-8.68,2.89-2.23-2.66,14.31-33.1,39.55-33.76Z"/>
  <path class="cls-1" d="M1462.64,446.64c-1.71-.04-2.34-26.94-3.43-71.52-2.4-98.62-2.41-94.23-2.41-96.95,0,0,.18-138.41-17.85-141.32-.97-.16-8.78-.94-9.82-4.44-.2-.67-.53-2.3-.12-4.03.29-1.21.96-4.7,4.34-8.29,2.83-3,5.33-3.77,15.44-7.57,11.63-4.37,14.75-5.74,17.01-4.04,1.98,1.5,1.92,4.58,1.92,5.65-.56,294.79-1.01,300.19-1.92,310.99-.52,6.18-1.86,21.55-3.16,21.52Z"/>
  <path class="cls-1" d="M257.41,10c47.44,18.07,72.5,54.8,81.54,69.77,1.52,1.99,1.09,4.68-.56,5.86-1.26.91-3.14.86-4.61-.16-12.23-13.85-44.02-45.82-94.37-55.21-17.89-3.34-33.86-3.02-46.55-1.58,1.14-4.86,3.25-11.36,7.34-18.25,2.53-4.27,5.25-7.72,7.71-10.43,13.33.51,30.65,2.82,49.51,10Z"/>
  <path class="cls-1" d="M472.64,10c47.44,18.07,72.5,54.8,81.54,69.77,1.52,1.99,1.09,4.68-.56,5.86-1.26.91-3.14.86-4.61-.16-12.23-13.85-44.02-45.82-94.37-55.21-17.89-3.34-33.86-3.02-46.55-1.58,1.14-4.86,3.25-11.36,7.34-18.25,2.53-4.27,5.25-7.72,7.71-10.43,13.33.51,30.65,2.82,49.51,10Z"/>
  <path class="cls-1" d="M390.54,104.8c1.65.15,3.84.62,4.88,2.24,1.59,2.48-.54,6.02-5.05,14.49-6.77,12.72-7.26,14.62-9.16,14.71-1.54.07-2.55-1.11-10.85-15.19-4.97-8.43-6.72-11.59-5.35-13.81,1.15-1.85,3.95-2.22,6.07-2.24,6.49-.06,12.98-.13,19.46-.19Z"/>
  <path class="cls-1" d="M1002.78,106.08c1.65.15,3.84.62,4.88,2.24,1.59,2.48-.54,6.02-5.05,14.49-6.77,12.72-7.26,14.62-9.16,14.71-1.54.07-2.55-1.11-10.85-15.19-4.97-8.43-6.72-11.59-5.35-13.81,1.15-1.85,3.95-2.22,6.07-2.24,6.49-.06,12.98-.13,19.46-.19Z"/>
</svg>