<?xml version="1.0" encoding="UTF-8"?>
<svg id="Layer_1" data-name="Layer 1" xmlns="http://www.w3.org/2000/svg" viewBox="0 0 713.59 783.92">
  <defs>
    <style>
      .cls-1 {
        fill: #993c4a;
      }

      .cls-1, .cls-2, .cls-3, .cls-4, .cls-5, .cls-6, .cls-7, .cls-8, .cls-9, .cls-10, .cls-11, .cls-12, .cls-13, .cls-14, .cls-15, .cls-16, .cls-17, .cls-18 {
        stroke-width: 0px;
      }

      .cls-2 {
        fill: #404b75;
      }

      .cls-3 {
        fill: #5f6c7f;
      }

      .cls-4 {
        fill: #fcf8f9;
      }

      .cls-5 {
        fill: #fcfafa;
      }

      .cls-6 {
        fill: #ff7e46;
      }

      .cls-7 {
        fill: #fff;
      }

      .cls-8 {
        fill: #677284;
      }

      .cls-9 {
        fill: #fe9d72;
      }

      .cls-10 {
        fill: #ffd217;
      }

      .cls-11 {
        fill: #993d4b;
      }

      .cls-12 {
        fill: #ff5b4f;
      }

      .cls-13 {
        fill: #8a293a;
      }

      .cls-14 {
        fill: #5e6b7e;
      }

      .cls-15 {
        fill: #616e81;
      }

      .cls-16 {
        fill: #5f6c7e;
      }

      .cls-17 {
        fill: #fcfcfc;
      }

      .cls-18 {
        fill: #606d7f;
      }
    </style>
  </defs>
  <path class="cls-12" d="M286.42,438.15c-26.86,0-53.72,0-80.58,0-.99,0-1.99,0-2.98.04-.69.02-1.04.41-1.08,1.14-.02.3-.03.6-.03.89,0,3.78,0,7.56,0,11.34,0,.49.01,1,.14,1.48.06.23.36.45.61.55.26.11.59.09.88.09.9.01,1.79.01,2.69.01,53.72,0,107.44,0,161.17.02,1.09,0,2.19.03,3.28.06.39.01.79.38.79.74,0,.69,0,1.39-.06,2.08-.06.79-.25,1.58-.26,2.37-.05,2.69-.46,5.35-.83,8.01-.57,4.13-1.27,8.24-2.16,12.33-2.25,10.42-5.42,20.55-9.44,30.43-2.06,5.07-4.31,10.05-6.77,14.94-.27.53-.54,1.06-.8,1.6-.39.78-.98,1.22-1.89,1.2-.89-.02-1.79,0-2.69,0-17.41,0-34.82,0-52.23,0-4.06,0-3.72-.33-3.73,3.66,0,3.28,0,6.57,0,9.85,0,.49.09.98.2,1.46.04.16.24.33.41.4.27.1.58.16.87.16.89.02,1.79.02,2.69.02,14.72,0,29.45,0,44.17,0,.99,0,1.98.09,2.96.17.11,0,.3.31.27.43-.11.47-.25.95-.46,1.39-2.34,5.16-4.49,10.41-6.42,15.74-3.35,9.27-6.04,18.71-7.98,28.38-.84,4.19-1.53,8.41-2.12,12.64-.39,2.75-.56,5.54-.82,8.31-.18,1.88-.34,3.76-.51,5.64-.04.43-.35.77-.74.79-.6.03-1.19.06-1.79.06-14.43,0-28.85,0-43.28,0-.5,0-.99,0-1.49-.02-.55-.02-.96-.39-.99-.88-.02-.3-.05-.59-.05-.89,0-.9,0-1.79,0-2.69,0-46.26,0-92.52,0-138.78,0-1.09-.03-2.19-.07-3.28-.01-.39-.38-.76-.74-.79-.3-.02-.59-.06-.89-.06-4.08,0-8.16,0-12.24,0-.3,0-.62-.01-.88.1-.24.1-.49.33-.6.56-.12.25-.11.58-.12.88-.01.99-.01,1.99-.01,2.98,0,41.88,0,83.77,0,125.65,0,.99-.05,1.99-.11,2.98,0,.07-.33.19-.49.16-.18-.03-.36-.17-.5-.31-.65-.62-1.28-1.25-1.92-1.88-18.08-18.08-36.16-36.16-54.23-54.24-.77-.77-1.49-1.59-2.21-2.41-.06-.07.07-.48.15-.49.59-.08,1.18-.14,1.77-.15,4.58-.01,9.15,0,13.73,0,8.16,0,16.32,0,24.47,0,.89,0,1.79-.04,2.68-.08.36-.02.76-.42.81-.76.04-.29.11-.59.11-.88,0-4.08,0-8.16,0-12.24,0-.3,0-.62-.12-.88-.12-.24-.37-.46-.62-.57-.26-.12-.58-.12-.87-.13-.9-.02-1.79-.01-2.69-.01-16.61,0-33.23,0-49.84,0-4.09,0-3.7.35-3.7-3.67,0-45.86,0-91.73-.01-137.59,0-4.96.61-4.31-4.2-4.35-2.79-.02-5.57,0-8.36,0-.69,0-1.39.04-2.08.07-.39.02-.78.38-.81.72-.04.4-.08.79-.09,1.19-.01.9,0,1.79,0,2.69,0,41.19,0,82.37,0,123.56,0,.99-.01,1.99-.06,2.98,0,.13-.24.27-.39.36-.06.04-.21-.01-.28-.07-.52-.46-1.04-.92-1.53-1.4-15.27-15.26-30.53-30.53-45.79-45.8-3.31-3.31-6.61-6.61-9.92-9.92-.56-.56-1.11-1.14-1.63-1.73-.1-.11-.1-.39-.03-.52.07-.13.3-.24.46-.25.89-.03,1.79-.03,2.69-.03,12.34,0,24.67.01,37.01,0,4.54,0,3.99.55,4.01-3.92.02-2.98,0-5.97,0-8.95,0-.6-.03-1.19-.07-1.79-.02-.38-.39-.78-.74-.79-.99-.04-1.99-.08-2.98-.08-16.91,0-33.83,0-50.74,0-.99,0-1.99-.04-2.98-.08-.36-.01-.73-.41-.74-.79-.03-.69-.06-1.39-.06-2.09,0-21.99,0-43.97,0-65.96,0-.4,0-.8,0-1.19.01-1.6.13-2.03,2.13-2,.7,0,1.39,0,2.09,0,51.53,0,103.07,0,154.6,0,.99,0,1.99,0,2.98.04.68.02,1.04.42,1.06,1.17.02.89.02,1.79.02,2.69,0,16.32,0,32.63,0,48.95,0,.99.04,1.99.07,2.98.01.36.4.72.78.75.3.03.59.07.89.07,3.98,0,7.96,0,11.94,0,.4,0,.81,0,1.18-.12.24-.08.55-.36.57-.58.09-.89.11-1.78.11-2.68,0-8.56,0-17.11,0-25.67s0-16.51,0-24.77c0-2.68-.07-2.83,2.8-2.82,11.24.01,22.48,0,33.73,0,11.84,0,23.68,0,35.52,0,.9,0,1.79.02,2.69.01.66,0,1.15.29,1.46.85.29.52.54,1.06.8,1.6,4.8,9.84,8.91,19.96,12.07,30.46,2.13,7.05,3.82,14.2,5.02,21.46.68,4.11,1.29,8.25,1.49,12.43.07,1.49.24,2.97.35,4.45.03.39-.34.75-.73.78-.3.03-.59.06-.89.07-.8,0-1.59,0-2.39,0-19.5,0-39,0-58.5,0-7.46,0-14.92,0-22.38,0Z"/>
  <path class="cls-6" d="M384.65,41.1c.65.61,1.33,1.19,1.96,1.82,29.9,29.89,59.8,59.79,89.69,89.69.63.63,1.23,1.29,1.82,1.97.1.12.12.43.03.55-.28.4-.61.78-.95,1.13-3.37,3.38-6.75,6.76-10.13,10.13-2.74,2.74-5.49,5.48-8.23,8.23-.42.42-.82.87-1.22,1.31-.19.21-.2.63-.04.83.19.23.36.47.57.68,2.95,2.96,5.91,5.91,8.86,8.86.21.21.45.39.68.57.2.16.62.15.83-.05.65-.61,1.31-1.22,1.94-1.85,5.56-5.55,11.12-11.11,16.67-16.67.63-.63,1.28-1.25,1.93-1.86.26-.25.78-.21,1.09.06.22.2.44.4.65.61.57.56,1.13,1.12,1.69,1.69,24.27,24.27,48.54,48.54,72.8,72.81.7.7,1.38,1.43,2.04,2.17.09.11.11.42.03.52-.51.61-1.04,1.2-1.6,1.76-5.83,5.84-11.68,11.68-17.51,17.52-.56.56-1.08,1.16-1.62,1.74-.16.18-.16.35,0,.54.19.22.36.48.57.68,3.02,3.03,6.05,6.05,9.08,9.07.21.21.45.4.7.54.15.08.43.09.54,0,.54-.44,1.05-.91,1.54-1.4,5.77-5.76,11.54-11.53,17.31-17.3.56-.56,1.12-1.13,1.7-1.68.47-.45.87-.46,1.28-.08.43.41.86.83,1.28,1.25,24.83,24.83,49.66,49.66,74.49,74.5.49.49.95,1.01,1.39,1.55.09.11.09.43,0,.55-.44.54-.9,1.06-1.39,1.55-5.62,5.63-11.27,11.24-16.87,16.89-3.23,3.26-3.26,2.35-.08,5.58,2.16,2.2,4.36,4.37,6.54,6.54.42.42.87.81,1.31,1.21.18.16.63.14.82-.05.65-.61,1.31-1.22,1.94-1.85,5.77-5.76,11.54-11.54,17.31-17.3.49-.49,1.02-.94,1.56-1.36.12-.09.43-.1.55,0,.54.43,1.08.87,1.57,1.36,4.72,4.71,9.43,9.42,14.14,14.14q6.7,6.7,6.34,6.9c-.07.04-.14.16-.21.16-2.98.03-5.96.08-8.95.08-17.31,0-34.62.01-51.93,0-3.74,0-2.67.44-5.4-2.28-6.63-6.6-13.23-13.22-19.84-19.83-.63-.63-1.28-1.25-1.93-1.86-.31-.29-.68-.26-1.04.06-.15.13-.3.27-.44.41-3.03,3.02-6.05,6.05-9.07,9.08-.21.21-.37.47-.55.7-.15.19-.13.36.04.54.48.51.93,1.03,1.42,1.52,3.02,3.03,6.05,6.05,9.07,9.08.56.56,1.12,1.13,1.65,1.72.11.12.15.34.16.51,0,.25-.16.33-.41.33-.79,0-1.59.04-2.38.04-20.19,0-40.39,0-60.58,0-.6,0-1.2-.03-1.79,0-.86.05-1.53-.29-2.1-.91-.54-.58-1.12-1.13-1.69-1.69-6.68-6.68-13.36-13.37-20.05-20.05-.49-.49-1.01-.96-1.54-1.4-.11-.09-.38-.06-.55,0-.18.06-.35.19-.49.33-3.17,3.16-6.34,6.32-9.5,9.49-.14.14-.23.32-.36.47-.15.19-.16.37,0,.54.54.58,1.06,1.18,1.62,1.74,3.44,3.45,6.89,6.9,10.33,10.36.19.19.28.48.39.73.03.06-.04.23-.1.25-.18.06-.39.11-.58.11-.8.01-1.59.01-2.39.01-20.1,0-40.19,0-60.29,0-3.81,0-2.72.42-5.41-2.26-6.56-6.52-13.09-13.08-19.63-19.62-.56-.56-1.12-1.13-1.69-1.68-.77-.74-1.04-.75-1.72-.11-.07.07-.14.14-.21.21-2.88,2.88-5.77,5.76-8.65,8.65-.28.28-.58.57-.76.91-.12.22-.15.64-.01.81.49.62,1.04,1.2,1.6,1.76,3.23,3.24,6.47,6.47,9.7,9.72.34.34.59.76.86,1.16.03.04-.06.19-.12.26-.06.06-.15.12-.24.12-.5.03-.99.07-1.49.07-14.42,0-28.85,0-43.27,0-.58,0-1.17-.09-1.75-.16-.04,0-.11-.19-.09-.27.05-.18.12-.37.25-.5.69-.72,1.39-1.42,2.09-2.13,17.44-17.45,34.89-34.89,52.32-52.35,2.65-2.65,2.73-1.96.02-4.7-2.38-2.4-4.78-4.79-7.18-7.18-.35-.35-.73-.67-1.1-1-.19-.16-.63-.14-.83.05-.72.69-1.44,1.37-2.14,2.07-19.56,19.55-39.11,39.11-58.67,58.66-.7.7-1.45,1.35-2.2,1.99-.1.08-.46.04-.53-.06-.34-.48-.67-.98-.91-1.52-2.12-4.71-4.18-9.46-5.97-14.31-2.83-7.65-5.21-15.44-6.98-23.41-.86-3.88-1.62-7.78-2.19-11.71-.56-3.94-.94-7.89-1.32-11.85-.44-4.57-.38-9.14-.39-13.71,0-.17.14-.34.21-.5.08-.19.49-.11.78.17.22.2.44.4.65.61.5.49.99.98,1.48,1.48,10.41,10.41,20.82,20.82,31.23,31.23.63.63,1.27,1.26,1.92,1.88.34.33.74.35,1.06.08.08-.06.17-.11.23-.18,3.23-3.24,6.47-6.47,9.7-9.72.36-.36.37-.71.09-1.03-.2-.22-.4-.45-.61-.66-.56-.57-1.12-1.13-1.69-1.69-13.65-13.65-27.29-27.29-40.94-40.94-.42-.42-.82-.87-1.27-1.26-.84-.71-1.08-1.55-.87-2.65.81-4.19,1.59-8.39,2.61-12.54,2.2-9,5.07-17.77,8.62-26.32,1.25-3.03,2.63-6.01,3.96-9.01.16-.36.37-.7.61-1.01.09-.11.41-.18.51-.11.47.36.93.74,1.35,1.16,4.65,4.64,9.29,9.28,13.93,13.92.56.56,1.13,1.12,1.69,1.69,1.74,1.75,1.7,1.79,3.48,0,2.53-2.54,5.06-5.07,7.6-7.6.35-.35.69-.71,1.04-1.07.32-.34.36-.76.07-1.06-.61-.65-1.22-1.3-1.86-1.94-5.27-5.28-10.55-10.55-15.82-15.83-1.19-1.2-2.37-2.41-3.54-3.62-.21-.22-.24-.63-.07-.82.19-.23.38-.46.59-.67.56-.57,1.12-1.13,1.69-1.69,19.83-19.84,39.67-39.68,59.5-59.52.7-.7,1.39-1.42,2.07-2.14.25-.26.21-.79-.06-1.09-.06-.07-.13-.15-.2-.22-3.17-3.17-6.33-6.33-9.5-9.49-.42-.42-.81-.4-1.28.04-.22.2-.43.41-.64.62-.49.49-.99.98-1.48,1.48-11.26,11.26-22.51,22.51-33.77,33.76-.7.7-1.43,1.38-2.16,2.06-.06.05-.23.08-.27.04-.11-.11-.28-.29-.26-.4.2-.87.45-1.73.68-2.59,1.8-6.62,3.31-13.3,4.44-20.07.61-3.63.95-7.29,1.53-10.92.03-.2.04-.4.06-.59.4-5.35.86-10.71.77-16.09-.05-2.88-.05-5.77-.1-8.65-.03-1.89-.06-3.78-.38-5.65-.1-.59-.11-1.19-.14-1.78-.16-3.18-.66-6.32-1.06-9.48-.61-4.84-1.52-9.62-2.57-14.37-.49-2.23-1.07-4.44-1.6-6.66-.12-.49-.17-.99-.25-1.48-.32-.73-.43-1.34.69-1.3Z"/>
  <path class="cls-14" d="M.08,628.36c0-27.06,0-54.12,0-81.17,0-1.09.04-2.19.07-3.28.01-.37.39-.75.76-.76.99-.03,1.99-.07,2.98-.07,10.74,0,21.49,0,32.23,0,43.47,0,86.94,0,130.42,0,.99,0,1.99,0,2.98.02.85.02,1.18.39,1.21,1.33.02.7.02,1.39.02,2.09,0,54.71,0,109.43,0,164.14,0,.7,0,1.39-.02,2.09-.02.84-.4,1.18-1.33,1.21-.5.02-.99.01-1.49.02-1.89,0-3.78.01-5.67.01-24.47.01-48.94.02-73.42.03-26.56.02-53.12.04-79.68.06-2.29,0-4.58.02-6.86.01-.49,0-.99-.06-1.48-.11-.34-.04-.51-.31-.6-.58-.09-.28-.1-.59-.1-.88-.01-.99-.01-1.99-.01-2.98,0-27.06,0-54.12,0-81.17Z"/>
  <path class="cls-14" d="M536.42,0C590.33,0,644.24,0,698.16,0c.99,0,1.99,0,2.98.01.28,0,.67-.01.69.37,0,.25-.17.53-.33.76-.17.24-.4.44-.61.65-.49.49-.98.99-1.48,1.48-53.38,53.38-106.77,106.77-160.15,160.15-.77.77-1.56,1.53-2.35,2.29-.29.28-.79.28-1.08.02-.37-.33-.74-.66-1.09-1.01-1.48-1.47-2.96-2.95-4.43-4.43-52.4-52.4-104.8-104.8-157.2-157.2-.77-.77-1.51-1.58-2.26-2.37-.06-.06-.12-.21-.09-.26.09-.15.22-.38.35-.38.99-.05,1.99-.06,2.98-.06C409.4,0,444.71,0,480.02,0h56.4Z"/>
  <path class="cls-14" d="M713.58,177.47c0,54.01,0,108.02,0,162.03,0,.99-.04,1.98-.08,2.98,0,.08-.07.21-.13.22-.17.03-.41.08-.53,0-.39-.3-.76-.64-1.11-.99-1.2-1.19-2.39-2.39-3.59-3.59-52.68-52.68-105.36-105.36-158.03-158.04-.7-.7-1.4-1.41-2.09-2.13-.41-.42-.4-.85.02-1.3.55-.58,1.11-1.14,1.67-1.7,53.73-53.73,107.47-107.47,161.2-161.2.63-.63,1.28-1.25,1.95-1.84.1-.09.36-.03.54,0,.05,0,.11.16.11.24.03.99.07,1.98.07,2.98,0,14.62,0,29.24,0,43.86v118.46Z"/>
  <path class="cls-2" d="M632.45,713.8c-25.66,0-51.31,0-76.97,0-.99,0-1.99-.03-2.98-.06-.07,0-.19-.09-.2-.16-.03-.18-.08-.41,0-.54.22-.32.5-.61.78-.89.84-.85,1.69-1.69,2.53-2.53,51.61-51.61,103.23-103.23,154.84-154.84.77-.77,1.58-1.51,2.36-2.27.16-.16.34-.17.53,0,.06.06.14.14.15.22.04.29.08.59.08.89.01.8,0,1.59,0,2.39,0,51.22,0,102.43,0,153.65,0,1.09-.04,2.18-.08,3.27-.01.36-.41.72-.8.74-.89.03-1.79.06-2.68.06-7.86,0-15.71.02-23.57.02-18,0-36,0-54,0v.08Z"/>
  <path class="cls-2" d="M170.76,79.64c0,25.36,0,50.72,0,76.08,0,.99-.03,1.99-.08,2.98,0,.08-.32.2-.48.18-.18-.02-.36-.15-.5-.28-.65-.62-1.28-1.25-1.91-1.89-34.6-34.6-69.19-69.19-103.79-103.79C47.33,36.25,30.67,19.58,14,2.91c-.63-.63-1.26-1.27-1.88-1.91-.29-.3-.37-.69-.17-.78.17-.07.33-.19.5-.2.7-.03,1.39-.02,2.09-.02,50.92,0,101.83,0,152.75,0,.89,0,1.79.04,2.68.07.35.01.72.41.73.8.03.99.06,1.99.06,2.98,0,25.26,0,50.52,0,75.78Z"/>
  <path class="cls-2" d="M79.66,170.66c-25.26,0-50.53,0-75.79,0-.99,0-1.99-.03-2.98-.05-.37,0-.72-.38-.75-.77-.02-.3-.05-.59-.06-.89,0-.7,0-1.39,0-2.09,0-50.63,0-101.26,0-151.88,0-.9,0-1.79.03-2.68,0-.17.14-.34.23-.5.1-.19.44-.09.77.23.5.48,1,.97,1.49,1.47,41.99,41.99,83.97,83.98,125.96,125.98,9.42,9.43,18.84,18.85,28.27,28.28.63.63,1.26,1.27,1.89,1.91.33.33.42.67.23.77-.16.08-.33.21-.49.21-.89.02-1.79.02-2.69.02-25.36,0-50.73,0-76.09,0Z"/>
  <path class="cls-2" d="M265.07,0c24.86,0,49.72,0,74.59,0,.99,0,1.99.03,2.98.06.07,0,.16.08.22.14.17.18.16.36,0,.54-.19.22-.38.46-.58.67-.49.5-.98.99-1.47,1.48-50.42,50.42-100.83,100.84-151.25,151.27-.77.77-1.56,1.54-2.35,2.29-.12.11-.33.15-.5.16-.24.01-.33-.15-.33-.4,0-.89-.05-1.79-.05-2.68,0-41.17,0-82.34,0-123.51,0-8.85,0-17.7.02-26.55,0-.89.04-1.79.08-2.68.01-.36.41-.7.79-.73.3-.02.6-.04.89-.04.89,0,1.79,0,2.69,0,24.76,0,49.52,0,74.29,0Z"/>
  <path class="cls-2" d="M78.64,186.21c25.06,0,50.11,0,75.17,0,.8,0,1.59,0,2.39.02.17,0,.33.13.49.22.18.1.09.45-.22.77-.62.64-1.25,1.28-1.89,1.91-16.31,16.31-32.62,32.62-48.94,48.94-34.17,34.17-68.34,68.35-102.51,102.52-.77.77-1.58,1.51-2.38,2.26-.05.05-.17.06-.25.05-.25-.01-.37-.14-.37-.37-.02-1.09-.06-2.18-.06-3.28,0-43.65,0-87.3,0-130.95,0-6.26,0-12.53,0-18.79,0-.79.02-1.59.04-2.38.02-.56.36-.87.96-.89.99-.02,1.99-.03,2.98-.03,24.86,0,49.72,0,74.58,0h0Z"/>
  <path class="cls-2" d="M713.58,448.84c0,24.97,0,49.94,0,74.91,0,.99-.04,1.98-.08,2.98-.01.36-.42.72-.8.73-.99.03-1.99.05-2.98.05-36.21,0-72.42,0-108.63,0-13.83,0-27.65,0-41.48,0-.79,0-1.59-.02-2.38-.08-.08,0-.21-.32-.19-.48.02-.18.15-.37.28-.5.62-.65,1.25-1.28,1.89-1.91,50.43-50.43,100.87-100.87,151.3-151.3.77-.77,1.58-1.51,2.38-2.25.06-.06.2-.11.25-.08.15.1.38.23.38.35.05.99.08,1.99.08,2.98,0,24.87,0,49.74,0,74.61Z"/>
  <path class="cls-14" d="M78.7,527.51c-24.96,0-49.92,0-74.88,0-4.12,0-3.74.39-3.74-3.61,0-50.02,0-100.04,0-150.06,0-.89.05-1.78.1-2.68,0-.07.1-.14.17-.2.18-.17.36-.15.53.01.22.2.47.37.68.58.57.55,1.13,1.12,1.69,1.68,50.42,50.42,100.83,100.83,151.25,151.26.77.77,1.67,1.42,2.18,2.41.06.12-.03.42-.14.51-.13.1-.38.09-.57.09-.89,0-1.79,0-2.68,0-24.86,0-49.72,0-74.58,0Z"/>
  <path class="cls-2" d="M448.58,713.88c-24.96,0-49.92,0-74.88,0-.89,0-1.79-.03-2.68-.02-.25,0-.42-.07-.41-.32,0-.17.06-.37.16-.51.17-.24.39-.45.6-.66.49-.5.98-.99,1.47-1.48,50.42-50.42,100.83-100.83,151.25-151.25.84-.84,1.71-1.66,2.59-2.46.09-.09.35-.02.52.02.06.01.12.14.13.22.04.29.09.59.09.89.01.89,0,1.79,0,2.68,0,49.42,0,98.85,0,148.27,0,.9,0,1.79,0,2.68-.02,1.71-.16,1.85-1.88,1.86-3.58.02-7.16.02-10.74.02-22.08,0-44.15,0-66.23,0v.06Z"/>
  <path class="cls-14" d="M186.32,635.39c0-24.96,0-49.92,0-74.89,0-.99.04-1.99.06-2.98,0-.24.11-.37.36-.39.09,0,.2-.03.26.02.24.17.49.34.71.54.57.55,1.13,1.12,1.69,1.68,50.49,50.49,100.98,100.98,151.47,151.47.63.63,1.27,1.26,1.88,1.92.18.19.27.49.35.75.07.2-.24.37-.7.37-.8,0-1.59.01-2.39.01-40.77.02-81.55.03-122.32.05-9.45,0-18.9.01-28.34.01-.7,0-1.39-.01-2.09-.04-.55-.02-.89-.38-.91-.95-.03-.99-.04-1.99-.04-2.98,0-24.86,0-49.73,0-74.59Z"/>
  <path class="cls-2" d="M621.5,543.05c24.86,0,49.72,0,74.58,0,.99,0,1.99.04,2.98.06.23,0,.36.12.38.37,0,.09,0,.2-.05.26-.25.31-.51.61-.78.89-1.33,1.34-2.67,2.68-4,4.01-49.51,49.5-99.01,99.01-148.52,148.51-.77.77-1.59,1.48-2.4,2.2-.16.14-.39.05-.49-.17-.08-.17-.15-.36-.15-.55-.02-.89-.02-1.79-.02-2.68,0-49.62,0-99.25,0-148.87,0-4.64-.53-4.02,3.89-4.02,24.86-.02,49.72,0,74.58,0Z"/>
  <path class="cls-13" d="M390.24,616.6c-14.91,0-29.82,0-44.73,0-.89,0-1.78-.05-2.67-.13-.15-.01-.37-.24-.39-.39-.05-.49-.07-.99-.02-1.48.33-3.46.61-6.93,1.03-10.38.49-4.04,1.2-8.05,2.03-12.04,3.41-16.44,9.2-32.03,16.71-47.01.18-.36.36-.71.53-1.07.33-.67.81-1.1,1.61-1.07.6.02,1.19,0,1.79,0,22.96,0,45.92,0,68.88,0,.79,0,1.59.02,2.38.05.53.02.85.39.87.99.02.5.03.99.03,1.49,0,22.86,0,45.72,0,68.58,0,2.5.07,2.47-2.43,2.47-15.21,0-30.42,0-45.62,0Z"/>
  <path class="cls-13" d="M527.43,490.6c0,11.13,0,22.26,0,33.39,0,.89-.04,1.78-.08,2.67-.02.36-.42.72-.81.74-.6.03-1.19.05-1.79.05-22.76,0-45.52,0-68.28,0-.69,0-1.38-.05-2.07-.13-.15-.02-.32-.23-.41-.39-.09-.17-.13-.38-.13-.57-.02-.79-.02-1.59-.02-2.38,0-22.26,0-44.53,0-66.79,0-.89.04-1.78.07-2.68.01-.36.41-.72.8-.73.79-.03,1.59-.05,2.38-.05,22.36,0,44.72,0,67.09,0,.79,0,1.59.02,2.38.05.38.01.75.38.79.75.03.29.07.59.07.89.01.79,0,1.59,0,2.39,0,10.93,0,21.87,0,32.8Z"/>
  <path class="cls-13" d="M579.78,438.18c-11.34,0-22.68,0-34.01,0-2.86,0-2.77.15-2.77-2.76,0-22.18,0-44.36,0-66.54,0-2.8,0-2.81,2.78-2.81,22.68,0,45.35,0,68.03,0,.69,0,1.39.05,2.08.09.38.02.73.41.76.78.02.2.04.39.05.59,0,.6,0,1.19,0,1.79,0,21.88,0,43.76,0,65.64,0,.79-.02,1.59-.05,2.38-.01.37-.38.73-.78.75-.59.03-1.19.06-1.79.06-4.08,0-8.16,0-12.23,0h-22.08Z"/>
  <path class="cls-13" d="M490.43,438.17c-11.13,0-22.27,0-33.4,0-.89,0-1.79-.05-2.67-.12-.15-.01-.33-.23-.41-.39-.08-.17-.09-.38-.09-.58-.01-.8-.02-1.59-.02-2.39,0-21.67,0-43.34,0-65.01,0-.89.02-1.79.04-2.68,0-.36.4-.8.73-.81.99-.04,1.98-.09,2.98-.09,11.83,0,23.66,0,35.49,0,10.24,0,20.48,0,30.72,0,.89,0,1.79.02,2.68.05.5.02.9.44.92.97.02.79.03,1.59.03,2.38,0,21.77,0,43.54,0,65.31,0,3.75.46,3.37-3.29,3.37-11.23,0-22.47,0-33.7,0h0Z"/>
  <path class="cls-13" d="M438.29,490.59c0,11.04,0,22.08,0,33.12,0,.89,0,1.79-.02,2.68-.01.65-.44,1.03-1.16,1.05-.3.01-.6.01-.89.01-.5,0-.99,0-1.49,0-19.99,0-39.98,0-59.97,0-3.62,0-3.77.44-2.16-3.15,5.17-11.54,9.34-23.43,12.32-35.73,1.4-5.8,2.52-11.65,3.38-17.55.76-5.22,1.2-10.47,1.6-15.72.02-.3.08-.59.11-.88.04-.35.31-.56.57-.61.48-.09.99-.09,1.48-.09,14.72,0,29.44,0,44.16,0,.4,0,.79.03,1.19.05.48.03.86.46.87,1.01.02.89.02,1.79.02,2.68,0,11.04,0,22.08,0,33.12Z"/>
  <path class="cls-13" d="M438.29,402.28c0,10.84,0,21.69,0,32.53,0,.89,0,1.79-.08,2.68-.02.21-.34.51-.57.56-.48.11-.98.11-1.48.11-14.72,0-29.45,0-44.17,0-.3,0-.6,0-.9-.01-.78-.02-1.11-.32-1.17-1.01-.13-1.59-.28-3.17-.4-4.76-1.29-17.57-5.3-34.54-11.37-51.05-1.61-4.39-3.36-8.71-5.26-12.98-.24-.54-.45-1.1-.61-1.67-.04-.12.13-.38.27-.47.15-.1.38-.11.58-.11.8-.02,1.59-.02,2.39-.02,19.7,0,39.4,0,59.09,0,4.2,0,3.67-.33,3.68,3.66.02,10.84,0,21.69,0,32.53Z"/>
  <path class="cls-1" d="M329.01,97.01c12.92,0,25.85,0,38.77,0,.89,0,1.79.02,2.68.06.51.02.88.46.87,1,0,.3,0,.6-.02.89-1.28,18.59-5.62,36.47-12.65,53.71-1.24,3.03-2.59,6.02-3.9,9.02-.24.54-.53,1.06-.81,1.59-.12.24-.58.35-.78.21-.16-.12-.34-.21-.48-.35-.43-.41-.86-.83-1.28-1.25-20.74-20.74-41.48-41.47-62.21-62.21-.63-.63-1.21-1.31-1.78-1.99-.06-.08.05-.4.17-.5.13-.11.37-.14.56-.15.89-.02,1.79-.03,2.68-.03,12.72,0,25.45,0,38.17,0Z"/>
  <path class="cls-13" d="M383.7,632.14c12.63,0,25.26,0,37.89,0,.79,0,1.59,0,2.38.05.14,0,.28.22.38.36.04.05,0,.2-.06.26-.46.52-.9,1.05-1.39,1.54-3.58,3.59-7.17,7.18-10.76,10.76-16.67,16.67-33.33,33.33-50,50-.7.7-1.43,1.38-2.16,2.05-.28.26-.81.12-.99-.26-.63-1.35-1.26-2.7-1.85-4.07-4.74-10.86-8.52-22.05-11.1-33.62-1.19-5.33-2.19-10.71-2.74-16.15-.31-3.07-.61-6.13-.9-9.2-.04-.39,0-.8.06-1.18.03-.16.23-.39.38-.4.79-.08,1.58-.14,2.37-.14,12.83,0,25.66,0,38.49,0Z"/>
  <path class="cls-1" d="M330.28,81.38c-12.53,0-25.06,0-37.58,0-.89,0-1.79,0-2.68-.04-.16,0-.39-.13-.46-.27-.07-.13-.05-.41.05-.52.53-.6,1.08-1.17,1.64-1.73,20.25-20.25,40.49-40.5,60.75-60.74.63-.63,1.3-1.22,1.98-1.79.09-.07.45,0,.51.11.31.5.59,1.03.84,1.57,5.73,12.62,10.15,25.67,12.96,39.25.88,4.28,1.66,8.58,2.08,12.94.28,2.97.61,5.93.91,8.9.05.49.03.99.03,1.49,0,.35-.38.73-.76.77-.3.03-.59.07-.89.08-.8.01-1.59,0-2.39,0-12.33,0-24.66,0-36.99,0Z"/>
  <path class="cls-1" d="M306.59,170.64c-9.24,0-18.49,0-27.73,0-.89,0-1.79-.04-2.68-.07-.36-.01-.71-.4-.73-.79-.02-.3-.05-.59-.05-.89,0-.6,0-1.19,0-1.79,0-18.49,0-36.98,0-55.47,0-.89.04-1.79.1-2.68,0-.08.33-.21.5-.19.18.02.37.14.51.27.58.54,1.14,1.1,1.71,1.67,19.12,19.12,38.24,38.24,57.35,57.35.42.42.85.84,1.26,1.27.26.27.67.52.58.95-.12.56-.64.33-.99.35-.79.04-1.59.01-2.38.01-9.14,0-18.29,0-27.43,0Z"/>
  <path class="cls-1" d="M228.64,275.32c9.24,0,18.49,0,27.73,0,.89,0,1.79.04,2.68.07.36.01.72.42.75.8.02.2.04.39.05.59,0,.6,0,1.19,0,1.79,0,18.78,0,37.57,0,56.35,0,.69-.04,1.39-.08,2.08,0,.07-.11.14-.18.18-.08.04-.21.09-.27.06-.18-.08-.35-.19-.49-.32-.57-.55-1.14-1.11-1.7-1.67-19.05-19.04-38.09-38.09-57.13-57.14-.69-.69-1.53-1.28-1.95-2.21-.05-.12.11-.48.19-.49.69-.06,1.38-.09,2.08-.09,9.44,0,18.88,0,28.33,0Z"/>
  <path class="cls-1" d="M170.74,306.81c0,9.14,0,18.29,0,27.43,0,.89,0,1.79-.05,2.68,0,.13-.23.27-.38.36-.06.04-.21-.01-.28-.07-.73-.67-1.46-1.34-2.16-2.04-15.89-15.88-31.77-31.76-47.65-47.65-3.3-3.3-6.61-6.6-9.91-9.91-.49-.49-.92-1.03-1.37-1.55-.06-.07-.1-.23-.06-.28.11-.15.25-.37.4-.39.49-.07.99-.08,1.48-.08,19.08,0,38.17,0,57.25,0,.59,0,1.19.03,1.78.07.47.03.89.5.9,1.01.02.89.03,1.79.03,2.68,0,9.24,0,18.49,0,27.73Z"/>
  <path class="cls-10" d="M228.95,186.17c9.14,0,18.28,0,27.42,0,.89,0,1.79.04,2.68.07.36.01.71.4.73.79.02.3.05.59.05.89,0,.6,0,1.19,0,1.79,0,18.48,0,36.96,0,55.44,0,.79-.03,1.59-.05,2.38,0,.22-.12.36-.36.38-.09,0-.2,0-.26-.05-.52-.46-1.05-.9-1.54-1.39-3.45-3.44-6.89-6.88-10.33-10.32-15.74-15.74-31.48-31.48-47.21-47.22-.7-.7-1.35-1.45-2.01-2.19-.04-.04,0-.18.04-.26.03-.09.09-.23.15-.23.79-.04,1.58-.09,2.38-.09,9.44,0,18.88,0,28.32,0Z"/>
  <path class="cls-10" d="M217.33,259.72c-9.25,0-18.5,0-27.75,0-.89,0-1.79-.06-2.67-.13-.15-.01-.33-.22-.42-.39-.09-.16-.12-.38-.13-.57-.02-.8-.03-1.59-.03-2.39,0-18.5,0-37,0-55.5,0-.79.04-1.59.05-2.38,0-.25.11-.38.37-.38.09,0,.21-.01.26.04.66.6,1.33,1.2,1.96,1.83,7.88,7.87,15.76,15.75,23.63,23.63,11.18,11.18,22.36,22.37,33.54,33.55.63.63,1.25,1.28,1.84,1.95.09.1.04.35,0,.53,0,.06-.15.12-.23.13-.89.04-1.78.08-2.68.08-9.25,0-18.5,0-27.75,0Z"/>
  <path class="cls-1" d="M127.49,347.42c-9.05,0-18.1,0-27.14,0-.89,0-1.78-.05-2.68-.09-.35-.02-.58-.3-.61-.56-.08-.89-.09-1.79-.09-2.68,0-7.86,0-15.71,0-23.57,0-10.14,0-20.28,0-30.43,0-.89.02-1.79.03-2.68,0-.23.12-.36.36-.38.09,0,.2,0,.28.05.17.1.33.21.47.35.57.55,1.13,1.12,1.69,1.68,18.49,18.49,36.98,36.98,55.47,55.48.7.7,1.38,1.43,2.05,2.16.05.06.06.17.06.25-.01.25-.15.36-.38.37-.89.02-1.79.05-2.68.05-8.95,0-17.9,0-26.85,0Z"/>
  <path class="cls-1" d="M305.68,347.42c-8.95,0-17.89,0-26.84,0-.89,0-1.79-.04-2.68-.07-.36-.01-.7-.4-.72-.79-.02-.4-.04-.79-.04-1.19,0-.8,0-1.59,0-2.39,0-17.69,0-35.39,0-53.08,0-.89.04-1.78.1-2.67,0-.06.33-.17.49-.13.18.04.35.18.49.32.5.48.99.97,1.49,1.47,18.63,18.63,37.25,37.25,55.88,55.88.63.63,1.24,1.29,1.86,1.93.16.16.17.34.02.53-.05.06-.15.13-.22.14-.89.03-1.78.07-2.68.07-9.05,0-18.09,0-27.14,0Z"/>
  <path class="cls-1" d="M275.39,228.44c0-9.44,0-18.88,0-28.31,0-.69.04-1.39.1-2.08,0-.06.34-.16.5-.13.18.03.35.18.49.31.57.55,1.14,1.11,1.7,1.67,14.82,14.83,29.64,29.64,44.45,44.48,2.51,2.52,2.35,1.73,1.88,5.4-.37,2.85-.48,5.74-.71,8.61-.02.3-.05.6-.15.88-.06.16-.27.29-.44.37-.18.08-.39.09-.59.09-.79.01-1.59.02-2.38.02-13.71,0-27.42,0-41.13,0-.6,0-1.19,0-1.79,0-1.66,0-1.96-.16-1.93-1.8.01-.79,0-1.59,0-2.38,0-9.04,0-18.08,0-27.12Z"/>
  <path class="cls-1" d="M186.31,316.9c0-8.84,0-17.69,0-26.53,0-.89.04-1.79.05-2.68,0-.25.09-.41.34-.4.18,0,.38.04.52.14.24.17.45.38.67.59.5.49.99.98,1.48,1.47,18.34,18.34,36.68,36.68,55.01,55.02.7.7,1.37,1.44,2.05,2.15.17.17.17.34,0,.52-.06.06-.13.15-.21.16-.49.04-.99.07-1.49.07-18.68,0-37.36,0-56.04,0-.59,0-1.2,0-1.78-.1-.26-.04-.53-.27-.54-.62-.03-.89-.07-1.79-.07-2.68,0-9.04,0-18.09,0-27.13h.01Z"/>
  <path class="cls-1" d="M259.85,140.52c0,8.85,0,17.7,0,26.55,0,.8,0,1.59-.02,2.39-.02.88-.33,1.15-1.32,1.18-.3,0-.6,0-.89,0-18.79,0-37.58,0-56.37-.01-.3,0-.59-.03-.89-.08-.06,0-.13-.12-.16-.2-.04-.08-.07-.2-.04-.27.09-.17.19-.35.32-.49.48-.5.97-.99,1.47-1.49,18.42-18.42,36.84-36.84,55.26-55.26.63-.63,1.29-1.23,1.95-1.84.06-.06.18-.08.26-.08.25,0,.38.13.38.36.02.89.05,1.79.05,2.68,0,8.85,0,17.7,0,26.55Z"/>
  <path class="cls-1" d="M140.76,259.75c-9.15,0-18.3,0-27.44,0-.69,0-1.38-.07-2.07-.13-.05,0-.11-.14-.14-.22-.03-.09-.07-.22-.03-.27.32-.38.64-.76.99-1.11,2.1-2.11,4.22-4.22,6.33-6.33,16.59-16.59,33.19-33.19,49.79-49.77.62-.62,1.12-1.41,2-1.73.13-.05.48.1.49.19.07.49.09.99.09,1.48,0,15.21,0,30.43,0,45.64,0,3.18,0,6.36-.01,9.55,0,.5,0,.99-.02,1.49-.03.84-.4,1.18-1.33,1.21-.8.02-1.59.02-2.39.02-8.75,0-17.5,0-26.25,0Z"/>
  <path class="cls-13" d="M543,483.84c0-8.85,0-17.7,0-26.56,0-.89.04-1.79.08-2.68.02-.38.4-.78.74-.8.49-.03.99-.07,1.49-.07,18.7,0,37.4,0,56.1,0,.3,0,.6-.02.89.04.16.03.36.18.4.32.05.15-.02.4-.13.53-.53.59-1.09,1.15-1.66,1.72-5.13,5.14-10.26,10.28-15.39,15.41-13.29,13.29-26.58,26.59-39.88,39.87-.63.63-1.3,1.21-1.96,1.81-.06.06-.23.09-.27.05-.14-.11-.34-.26-.35-.41-.04-.89-.05-1.79-.05-2.68,0-8.85,0-17.7,0-26.56Z"/>
  <path class="cls-13" d="M453.84,573.07c0-9.05,0-18.09,0-27.14,0-.79.04-1.58.12-2.37.01-.15.23-.32.4-.41.17-.09.38-.11.58-.12.79-.02,1.59-.02,2.39-.02,17.69,0,35.39,0,53.08,0,.89,0,1.79.04,2.68.1.13,0,.26.24.35.39.03.05,0,.19-.06.25-.53.59-1.05,1.19-1.61,1.75-4.42,4.43-8.85,8.86-13.28,13.29-13.92,13.92-27.83,27.83-41.75,41.75-.7.7-1.44,1.36-2.17,2.03-.06.06-.21.11-.26.08-.15-.1-.38-.23-.39-.36-.05-.89-.07-1.79-.07-2.68,0-8.85,0-17.69,0-26.54Z"/>
  <path class="cls-1" d="M81.42,318.19c0,8.45,0,16.9,0,25.36,0,.89,0,1.79-.02,2.68-.02.91-.3,1.15-1.31,1.18-.3,0-.6,0-.89,0-18.1,0-36.19,0-54.29,0-.49,0-.97-.09-1.46-.15-.05,0-.11-.19-.09-.27.05-.18.12-.37.24-.5.55-.58,1.11-1.14,1.67-1.7,17.86-17.86,35.72-35.72,53.58-53.57.63-.63,1.3-1.22,1.96-1.82.05-.04.18,0,.27.02.08.03.21.09.22.14.05.69.11,1.38.11,2.08,0,8.85,0,17.7,0,26.55Z"/>
  <path class="cls-13" d="M632.27,395.4c0-8.64,0-17.29,0-25.93,0-.89.05-1.78.09-2.67.02-.35.32-.58.57-.6.89-.08,1.78-.1,2.68-.1,9.24,0,18.48,0,27.72,0,8.35,0,16.69,0,25.04,0,.6,0,1.19.01,1.78.07.08,0,.2.33.18.49-.02.18-.15.37-.27.5-.55.58-1.11,1.14-1.67,1.7-17.78,17.78-35.55,35.55-53.33,53.33-.7.7-1.45,1.35-2.2,1.99-.07.06-.48-.09-.48-.17-.06-.79-.1-1.58-.1-2.38,0-8.74,0-17.49,0-26.23Z"/>
  <path class="cls-12" d="M81.42,395.73c0,8.95,0,17.89,0,26.84,0,.48.11.98-.21,1.41-.05.07-.19.14-.26.11-.18-.05-.38-.12-.51-.25-.58-.54-1.15-1.1-1.71-1.66-17.92-17.93-35.84-35.85-53.76-53.78-.55-.56-1.06-1.16-1.55-1.78-.07-.09.07-.5.13-.5.69-.06,1.39-.09,2.08-.09,11.33,0,22.66,0,34,0,5.96,0,11.93,0,17.89,0,.8,0,1.59,0,2.39.01,1.24.03,1.49.3,1.51,1.65.01.79,0,1.59,0,2.39,0,8.55,0,17.1,0,25.65Z"/>
  <path class="cls-1" d="M314.67,186.18c8.26,0,16.51,0,24.77,0,.79,0,1.59.05,2.37.12.11.01.31.31.28.42-.15.57-.33,1.13-.58,1.67-2.13,4.71-4.09,9.49-5.88,14.34-2.83,7.65-5.2,15.44-7.1,23.37-.07.29-.15.58-.23.86-.07.25-.54.37-.75.18-.37-.32-.76-.64-1.11-.98-12.8-12.8-25.6-25.59-38.4-38.4-.34-.34-.6-.75-.88-1.15-.03-.04.04-.23.11-.26.17-.08.36-.15.54-.16.89-.02,1.79-.01,2.69-.01,8.06,0,16.11,0,24.17,0Z"/>
  <path class="cls-1" d="M305.15,275.32c5.17,0,10.34,0,15.51,0,.7,0,1.39.01,2.09.04.56.02.97.38,1.02.88.17,1.88.35,3.76.48,5.64.39,5.66,1.21,11.26,2.18,16.84,1.19,6.86,2.84,13.61,4.75,20.29.05.18,0,.38-.01.58,0,0-.17.03-.22,0-.25-.15-.52-.29-.73-.49-.51-.47-.99-.97-1.49-1.47-13.22-13.22-26.43-26.43-39.65-39.65-.63-.63-1.22-1.3-1.82-1.95-.06-.06-.1-.22-.07-.28.1-.15.24-.36.38-.37.59-.05,1.19-.05,1.79-.05,5.27,0,10.54,0,15.81,0Z"/>
  <path class="cls-1" d="M35.39,764.63c0,2.78,0,5.57,0,8.35,0,.3-.04.59-.06.89-.03.37-.39.75-.77.75-1.49.01-2.98.02-4.47,0-.39,0-.78-.37-.8-.74-.04-1.29-.06-2.58-.09-3.87-.01-.6,0-1.19-.06-1.79-.01-.13-.24-.26-.4-.35-.04-.03-.2.06-.25.13-.27.41-.52.84-.78,1.26-2.71,4.47-6.82,6.2-11.86,5.93-2.6-.14-5.08-.9-7.34-2.27-3.55-2.15-5.96-5.21-7.27-9.13-1.63-4.87-1.67-9.79.05-14.63,2.19-6.15,6.62-9.7,13.02-10.93,3.62-.7,7.14-.4,10.59.73,5,1.63,8.17,5.11,9.73,10.1.07.21-.24.61-.48.62-1.69.03-3.38.02-5.06.09-1.29.06-2.4-.09-2.83-1.54-2.27-3.47-5.99-4.98-10.06-4.19-3.18.62-5.37,2.43-6.83,5.25-.51.98-.84,2.02-1.06,3.09-.69,3.27-.63,6.52.37,9.72.27.84.68,1.66,1.13,2.43,2.27,3.9,6.55,5.12,9.93,4.67.78-.1,1.58-.27,2.32-.54,3.41-1.23,5.35-3.65,5.72-7.28.07-.7-.28-1.1-1.03-1.11-2.59-.02-5.17-.02-7.76-.03-2.49-.02-2.52-.04-2.52-2.47,0-.89.03-1.79.06-2.68.01-.35.43-.75.77-.79.3-.03.59-.07.89-.07,5.17,0,10.34,0,15.51,0,.39,0,.79.07,1.17.17.16.04.36.25.38.41.09.48.14.98.14,1.47.01,2.78,0,5.57,0,8.35Z"/>
  <path class="cls-12" d="M306.34,632.12c4.97,0,9.94,0,14.91,0,.5,0,.99.01,1.49.03.58.02.96.35,1.01.87.16,1.78.37,3.56.47,5.34.19,3.38.66,6.72,1.1,10.07,1.06,7.99,2.71,15.85,4.83,23.62.05.19.07.39.07.59,0,.09-.03.25-.09.27-.16.06-.39.13-.49.06-.39-.3-.76-.63-1.11-.98-12.66-12.65-25.31-25.31-37.96-37.97-.42-.42-.79-.89-1.14-1.36-.05-.07.12-.45.21-.46.59-.07,1.19-.09,1.78-.09,4.97,0,9.94,0,14.91,0Z"/>
  <path class="cls-1" d="M136.14,766.21c0-4.87,0-9.75,0-14.62,0-.69.02-1.39.11-2.08.03-.25.26-.55.61-.55,1.88-.01,3.77-.02,5.65-.02.38,0,.76.4.78.76.03.79.03,1.59.08,2.38.02.27.07.63.25.76.35.26.5-.16.67-.36.38-.46.69-.97,1.1-1.41,1.47-1.59,3.27-2.53,5.47-2.72,3.93-.34,6.97,1.14,9.19,4.37,1.15,1.67,1.8,3.54,2.17,5.51.63,3.39.42,6.73-.83,9.97-.66,1.69-1.59,3.2-2.93,4.44-3.71,3.42-9.4,3.58-13.18-.2-.42-.42-.79-.89-1.17-1.35-.16-.19-.31-.24-.51-.08-.07.05-.14.14-.15.21-.04.49-.08.99-.08,1.49,0,2.69,0,5.37,0,8.06,0,.7-.01,1.39-.03,2.09-.02.57-.38.98-.87,1.03-.2.02-.4.05-.59.05-1.49,0-2.98,0-4.48-.02-.91-.01-1.21-.34-1.23-1.28-.02-.8-.02-1.59-.02-2.39,0-4.68,0-9.35,0-14.03Z"/>
  <path class="cls-11" d="M172.88,756.61c0-5.07,0-10.14,0-15.2,0-.69.04-1.39.08-2.08.02-.38.4-.81.73-.81,1.88-.02,3.77-.03,5.65-.02.37,0,.77.39.79.76.05.69.09,1.39.1,2.08.01,3.38,0,6.76.03,10.14,0,.27.14.54.24.8.02.05.24.1.27.06.39-.43.77-.87,1.15-1.31,1.45-1.65,3.27-2.55,5.46-2.66.69-.04,1.39-.03,2.08,0,3.08.13,5.75,1.86,6.94,5.58.39,1.22.64,2.5.64,3.81,0,5.27,0,10.53-.01,15.8,0,.1-.04.2-.04.29-.03.38-.39.78-.75.78-1.89.01-3.77.02-5.66.01-.34,0-.73-.43-.75-.79-.04-.69-.07-1.39-.07-2.08,0-3.48.02-6.96-.02-10.43-.01-1.29-.14-2.58-.3-3.86-.07-.58-.27-1.16-.52-1.69-.81-1.72-2.24-2.48-4.09-2.43-1.72.05-3.04.82-3.81,2.41-.35.72-.6,1.47-.63,2.28-.05,1.09-.11,2.18-.11,3.28-.01,3.68,0,7.35-.01,11.03,0,.59-.07,1.18-.16,1.77-.02.16-.24.3-.39.42-.07.06-.19.08-.28.08-1.88.01-3.77.02-5.65.02-.38,0-.78-.38-.81-.74-.05-.79-.1-1.58-.1-2.38,0-4.97,0-9.94,0-14.91Z"/>
  <path class="cls-1" d="M62.13,763.97c-2.78,0-5.57,0-8.35,0-.4,0-.7.4-.63.81.07.39.1.8.22,1.17,1.19,3.48,3.35,4.57,6.61,4.14,1.15-.15,2.07-.65,2.8-1.53.25-.31.48-.63.69-.97.23-.36.56-.56.98-.56,1.98,0,3.97.02,5.95.04.26,0,.45.39.36.68-.54,1.76-1.57,3.2-2.92,4.42-1.35,1.22-2.95,2.05-4.7,2.49-2.63.66-5.27.84-7.96.18-3.83-.93-6.7-3.06-8.31-6.63-1.84-4.08-1.95-8.3-.19-12.45,1.87-4.42,5.32-6.8,10.05-7.35,1.99-.23,3.99-.21,5.92.35,4,1.15,6.75,3.68,8.12,7.64.68,1.99,1.07,4.03.92,6.15-.01.2-.07.39-.1.59-.05.34-.46.74-.81.75-.89.03-1.79.06-2.68.07-1.99,0-3.98,0-5.97,0,0,0,0,.02,0,.03Z"/>
  <path class="cls-1" d="M116.08,763.95c-2.28,0-4.57,0-6.85,0-.5,0-.99.04-1.48.07-.29.02-.57.34-.53.59.17,1.19.54,2.32,1.21,3.32.88,1.31,2.1,2.1,3.7,2.2.59.04,1.19.01,1.78-.03,1.25-.09,2.28-.64,3.06-1.62.25-.31.46-.64.69-.97.25-.35.59-.51,1.01-.51,1.89,0,3.77.01,5.66.03.4,0,.67.47.52.85-1.37,3.64-4.06,5.81-7.73,6.79-2.52.67-5.07.78-7.66.18-4.44-1.02-7.4-3.64-8.98-7.86-.75-1.99-.86-4.07-.78-6.17.05-1.39.22-2.76.7-4.09,1.79-4.98,5.33-7.74,10.56-8.35,1.89-.22,3.8-.19,5.62.31,5.94,1.61,8.25,6.03,8.93,10.08.16.97.21,1.98.21,2.97,0,1.98-.14,2.22-2.19,2.2-2.48-.02-4.97,0-7.45,0Z"/>
  <path class="cls-1" d="M232.02,761.67c0,3.67,0,7.35,0,11.02,0,.49-.08.98-.18,1.46-.03.16-.25.28-.4.4-.07.06-.18.08-.27.08-1.79.01-3.57.03-5.36.02-.51,0-.9-.42-.94-.96-.06-.79-.11-1.57-.18-2.36,0-.07-.09-.17-.16-.2-.09-.03-.24-.03-.29.02-.38.45-.72.94-1.12,1.37-2.04,2.25-4.64,2.96-7.55,2.63-1.07-.12-2.14-.4-3.11-.95-2.36-1.33-3.45-3.48-3.92-6.02-.16-.87-.22-1.78-.23-2.67-.02-5.06,0-10.13,0-15.19,0-.2.04-.39.06-.59.03-.38.38-.8.72-.8,1.88-.02,3.76-.02,5.65-.02.32,0,.78.46.79.77.03.69.06,1.39.06,2.08,0,3.57,0,7.15,0,10.72,0,.99.06,1.98.09,2.98.03.92.34,1.76.78,2.54.68,1.18,1.69,1.93,3.11,2,.2.01.4.02.59.03,1.78.07,3.19-.78,3.95-2.57.32-.74.53-1.5.55-2.3.03-.99.07-1.98.07-2.98,0-3.67,0-7.35,0-11.02,0-.5.04-.99.06-1.49.02-.31.47-.77.8-.77,1.88,0,3.76,0,5.65.02.34,0,.7.42.71.81.03.69.07,1.39.07,2.08,0,3.28,0,6.55,0,9.83h0Z"/>
  <path class="cls-16" d="M610.65,757.81c-.07-2.75.33-5.49,1.47-8.08,1.91-4.33,5.04-7.36,9.63-8.69,3.75-1.08,7.49-.91,11.09.63,4.18,1.79,6.86,4.97,8.25,9.27.13.39-.14.88-.5.92-.2.02-.39.06-.59.07-.4.01-.8.01-1.19,0-2.2,0-1.96.07-2.92-1.82-.14-.26-.29-.52-.44-.78-2.02-3.31-4.94-5.05-8.86-5.1-4.17-.05-7.25,1.77-9.32,5.34-.45.77-.74,1.62-1.1,2.44-.52,1.21-.57,2.51-.77,3.79-.45,2.83.05,5.55.95,8.21.58,1.71,1.56,3.22,2.86,4.49,1.78,1.73,3.9,2.71,6.4,2.79,1.29.04,2.6.04,3.85-.29,2.6-.7,4.68-2.14,6.09-4.47.31-.51.64-1.02.84-1.58.4-1.15,1.22-1.47,2.32-1.37.3.03.6,0,.89,0,1.53-.01,2.1.3,1.39,1.91-.36.82-.73,1.64-1.17,2.41-1.92,3.36-4.76,5.59-8.48,6.6-2.6.71-5.24.96-7.96.42-5.43-1.07-9.1-4.21-11.3-9.18-1.1-2.49-1.5-5.14-1.44-7.93Z"/>
  <path class="cls-3" d="M384.77,757.85c0,4.67,0,9.33,0,14,0,.69-.05,1.39-.09,2.08-.02.35-.42.72-.8.73-.79.02-1.59.04-2.38.03-.69,0-.99-.38-1.03-1.16-.04-.79-.07-1.58-.11-2.37,0-.06-.11-.14-.18-.17-.09-.04-.24-.09-.28-.05-.49.49-.96,1-1.44,1.5-1.58,1.65-3.57,2.49-5.8,2.75-1.84.21-3.55-.32-5.14-1.2-1.79-.99-3.09-2.47-4.01-4.29-1.59-3.13-1.93-6.43-1.33-9.85.34-1.98,1.04-3.83,2.23-5.47,1.8-2.48,4.24-3.85,7.3-4.03,2.52-.14,4.68.76,6.44,2.55.62.63,1.14,1.38,1.7,2.06.05.06.15.1.23.11.26.03.34-.1.34-.37,0-3.08.02-6.16.03-9.23,0-1.09,0-2.18.01-3.28.02-1.07.31-1.33,1.48-1.35,2.81-.07,2.82-.07,2.83,2.72,0,4.77,0,9.53,0,14.3Z"/>
  <path class="cls-3" d="M515.22,764.04c-2.28,0-4.56,0-6.85,0-.49,0-.99.04-1.48.07-.25.02-.56.34-.58.58-.11,1.88.53,3.51,1.68,4.95,1.11,1.38,2.56,2.17,4.36,2.21.59.01,1.19.01,1.78-.03,1.8-.13,3.33-.87,4.16-2.48.69-1.33,1.56-1.94,3.03-1.71.39.06.79.01,1.19.03.76.02.96.4.68,1.2-.91,2.58-2.63,4.41-5.18,5.39-2.55.98-5.17,1.25-7.88.6-2.2-.53-4.05-1.56-5.55-3.25-1.08-1.21-1.82-2.61-2.28-4.14-.95-3.12-.97-6.27,0-9.38.92-2.96,2.67-5.3,5.55-6.66,2.31-1.09,4.76-1.41,7.26-.92,4.8.94,7.66,3.89,8.69,8.65.17.77.34,1.56.37,2.34.09,2.3.1,2.56-2.39,2.54-2.18-.03-4.37,0-6.55,0Z"/>
  <path class="cls-11" d="M89.22,756.79c0,5.06,0,10.13,0,15.19,0,.69-.03,1.39-.14,2.07-.04.22-.38.54-.59.55-1.88.05-3.77.04-5.65.04-.39,0-.78-.36-.8-.72-.03-.49-.07-.99-.07-1.48,0-10.52,0-21.05,0-31.57,0-.5.02-.99.04-1.49.03-.53.41-.9.97-.9,1.79,0,3.57,0,5.36.02.38,0,.78.37.79.73.04.79.08,1.58.08,2.37,0,5.06,0,10.13,0,15.19Z"/>
  <path class="cls-3" d="M700.74,783.37c-.55-.05-1.04-.09-1.54-.14-.22-.02-.49-.46-.43-.69.23-.76.45-1.52.7-2.27.69-2.07,1.41-4.14,2.08-6.22.46-1.44.76-1.93-1.3-1.92-.5,0-.99-.03-1.49-.08-.41-.05-.74-.28-.93-.65-.14-.26-.28-.53-.39-.8-2.27-5.83-4.54-11.67-6.8-17.5-.14-.37-.28-.74-.41-1.12-.18-.56.09-1.06.61-1.07.89-.02,1.79-.02,2.68,0,.43,0,.76.21.93.61.36.82.72,1.64,1.05,2.47,1.88,4.81,3.74,9.63,5.63,14.44.29.74.66,1.44,1,2.16.04.08.16.13.25.15.06.02.18-.03.2-.07.26-.64.54-1.28.76-1.93,1.76-5.17,3.5-10.35,5.25-15.53.19-.56.4-1.12.62-1.67.16-.4.5-.62.92-.62.99,0,1.98.04,2.97.07.24,0,.49.41.43.67-.14.58-.28,1.16-.47,1.72-2.14,6.41-4.3,12.81-6.45,19.21-.92,2.73-1.82,5.47-2.74,8.2-.22.66-.44,1.33-.73,1.95-.11.23-.43.44-.69.49-.58.11-1.18.12-1.72.16Z"/>
  <path class="cls-3" d="M580.59,756.81c-.4,0-.8,0-1.19,0-.42,0-.77-.17-1.03-.5-.13-.15-.25-.31-.36-.47-1.3-1.82-3.15-2.29-5.25-2.17-1.32.07-2.56.34-3.55,1.32-.36.35-.64.75-.77,1.25-.28,1.17.15,2.28,1.19,2.78.71.34,1.47.62,2.23.81,1.64.42,3.3.73,4.93,1.15.96.24,1.92.54,2.82.92,4.76,2.03,4.86,8.34,1.28,11.09-.88.68-1.85,1.18-2.89,1.51-2.82.89-5.67,1.01-8.51.14-2.59-.79-4.6-2.32-5.65-4.91-.15-.36-.18-.77-.25-1.16-.07-.38.26-.86.6-.87.89-.02,1.79-.03,2.68-.03.42,0,.77.15.96.55.17.36.34.72.53,1.07.81,1.53,2.12,2.36,3.81,2.5,1.08.09,2.18.01,3.27-.04.81-.04,1.54-.4,2.2-.84,1.45-.96,2.22-3.45.14-5.08-.72-.57-1.57-.87-2.43-1.1-1.15-.3-2.33-.48-3.49-.76-1.16-.28-2.31-.59-3.43-.97-.65-.22-1.28-.54-1.87-.91-3.21-2-3.3-6.18-1.23-8.57.73-.84,1.56-1.55,2.57-2,3.65-1.63,7.32-1.67,10.94.08,1.47.71,2.58,1.83,3.37,3.27.95,1.7.48,1.96-1.04,1.96-.2,0-.4,0-.6,0v-.02Z"/>
  <path class="cls-3" d="M536.07,767.66c.3,0,.6,0,.89,0,.65-.03,1.15.21,1.45.82.22.44.41.9.68,1.32.68,1.06,1.68,1.68,2.89,1.93,1.38.28,2.77.22,4.15-.01.48-.08.95-.29,1.39-.5,1.59-.77,2.21-2.21,1.73-3.97-.16-.6-.54-1.05-1.04-1.41-.82-.58-1.75-.93-2.72-1.16-.96-.23-1.94-.42-2.91-.64-.87-.2-1.74-.39-2.6-.62-1.06-.28-2.06-.73-2.98-1.32-3.28-2.08-3.28-6.19-1.27-8.57.65-.77,1.42-1.41,2.32-1.84,3.71-1.8,7.47-1.87,11.19-.07,1.85.9,3.2,2.32,3.83,4.34.14.43-.09.85-.51.85-.99,0-1.99.02-2.97-.03-.26-.01-.51-.24-.75-.39-.08-.05-.12-.15-.18-.24-.65-1.06-1.57-1.8-2.75-2.16-1.56-.48-3.15-.43-4.7.05-.75.24-1.43.67-1.95,1.32-.94,1.18-.66,2.86.64,3.61.78.45,1.61.75,2.5.93,1.65.34,3.29.75,4.94,1.1,1.08.23,2.08.63,3.06,1.12.81.41,1.5.97,2.08,1.66.59.7,1.02,1.48,1.1,2.4.07.79.13,1.58.1,2.37-.08,1.91-.97,3.42-2.48,4.54-.63.47-1.34.88-2.07,1.15-2.26.82-4.58,1.28-7,.86-.68-.12-1.38-.2-2.05-.39-2.83-.82-4.93-2.47-5.96-5.33-.43-1.2-.16-1.67,1.07-1.7.3,0,.6,0,.89,0h0Z"/>
  <path class="cls-3" d="M440.11,762.84c0,3.38,0,6.76,0,10.13,0,.39-.04.8-.13,1.18-.04.16-.23.39-.39.42-1.08.22-2.16.25-3.24,0-.15-.04-.37-.24-.38-.39-.09-.88-.14-1.77-.21-2.66,0-.08-.04-.19-.11-.23-.2-.13-.38-.09-.53.1-.3.39-.59.79-.91,1.17-1.13,1.35-2.59,2.1-4.3,2.49-2.54.59-6.5-.41-8.24-3.49-.64-1.14-1.12-2.33-1.27-3.63-.08-.69-.12-1.39-.12-2.08,0-4.47,0-8.94,0-13.41,0-.3,0-.62.1-.88.1-.24.35-.56.56-.59.78-.09,1.58-.1,2.37-.09.92,0,1.24.33,1.24,1.26.02,3.58.01,7.15.02,10.73,0,.99.02,1.99.03,2.98,0,1.11.27,2.18.74,3.17.77,1.64,2.04,2.66,3.9,2.81.49.04.99.04,1.49.03,1.91-.04,3.8-1.08,4.53-3.64.38-1.34.55-2.72.54-4.12-.03-2.58,0-5.17,0-7.75,0-.89,0-1.79,0-2.68,0-3.01-.08-2.83,3.02-2.79.2,0,.39.05.59.08.33.05.55.3.59.57.09.59.1,1.19.1,1.78,0,3.18,0,6.36,0,9.54h0Z"/>
  <path class="cls-3" d="M470.39,762.5c0-3.08,0-6.16,0-9.24,0-.59.02-1.2.13-1.77.04-.22.39-.51.61-.53.99-.05,1.98-.05,2.97,0,.26.01.52.27.54.62.05.79.11,1.58.18,2.37,0,.05.15.09.23.11.09.02.22.03.27-.01.48-.5.93-1.03,1.41-1.53,3.3-3.43,10.14-2.96,12.61,2.17.52,1.08.91,2.2.96,3.42.02.6.07,1.19.07,1.79,0,4.27,0,8.55,0,12.82,0,.49-.06.99-.15,1.47-.03.16-.24.39-.39.41-1.08.18-2.18.22-3.25-.03-.15-.03-.35-.27-.37-.44-.08-.59-.12-1.18-.13-1.78-.01-3.88-.02-7.75,0-11.63,0-1.3-.1-2.58-.6-3.8-.19-.46-.41-.91-.68-1.32-.64-.94-1.54-1.53-2.66-1.77-1.08-.24-2.17-.25-3.26-.04-1.35.25-2.38.96-3.07,2.14-.56.95-.93,1.98-1.01,3.09-.06.89-.07,1.79-.07,2.68,0,3.68,0,7.35-.01,11.03,0,.49-.06.99-.16,1.47-.03.15-.26.37-.41.38-.99.05-1.98.06-2.96.06-.35,0-.7-.41-.72-.82-.03-.69-.06-1.39-.06-2.08,0-3.08,0-6.16,0-9.24Z"/>
  <path class="cls-3" d="M281.28,773.48c.11-.58.17-1.18.33-1.74,2.9-9.8,5.81-19.59,8.72-29.39.08-.28.19-.56.32-.83.19-.37.49-.65.92-.65,2.48,0,4.96,0,7.44.02.38,0,.78.37.81.72.04.49.09.99.09,1.48,0,9.83,0,19.67,0,29.5,0,.4-.02.79-.05,1.19-.03.53-.41.88-.97.91-.2.01-.4.03-.59.03-2.78.01-2.8.16-2.8-2.74,0-9.34,0-18.67,0-28.01,0-.25.12-.56-.19-.74-.06-.04-.24-.01-.26.03-.22.44-.47.87-.61,1.33-1.4,4.65-2.79,9.31-4.18,13.97-1.39,4.66-2.76,9.32-4.16,13.98-.11.37-.33.7-.51,1.05-1.47,1.01-2.92,1.78-4.32-.11Z"/>
  <path class="cls-3" d="M400,764.05c0-2.58,0-5.17,0-7.75,0-.49-.02-1-.14-1.47-.06-.23-.36-.52-.59-.57-.58-.12-1.18-.13-1.77-.16-.59-.04-1.19-.05-1.78-.1-.32-.02-.7-.46-.71-.84-.02-.49-.01-.99,0-1.48.02-.38.4-.74.78-.76.79-.03,1.59-.03,2.38-.06.39-.02.81,0,1.17-.13.23-.08.53-.37.55-.6.09-.89.09-1.78.12-2.67.12-3.6,1.66-5.47,5.11-6.33,1.48-.37,2.95-.32,4.44-.23.37.02.75.39.76.78.02.59.01,1.18-.02,1.77-.02.38-.4.71-.8.73-.4.02-.79.04-1.19.06-.5.02-.99.02-1.49.07-1.29.12-2.2.97-2.41,2.25-.06.39-.1.79-.1,1.19.02,3.19-.38,3.14,3,3.12.4,0,.8,0,1.19,0,2.03-.04,2.08.52,1.71,2.71-.03.15-.26.36-.42.37-.89.08-1.78.14-2.67.14-2.97,0-2.82.14-2.82,2.78,0,5.07,0,10.14,0,15.2,0,.69-.05,1.39-.13,2.08-.02.16-.22.39-.38.42-1.08.23-2.17.21-3.25.01-.15-.03-.35-.26-.38-.42-.09-.48-.14-.98-.15-1.47-.01-2.88,0-5.76,0-8.64h0Z"/>
  <path class="cls-18" d="M671.87,761.59c0-1.69,0-3.38,0-5.07-.01-2.37-.02-2.37-2.26-2.43-.6-.02-1.19-.03-1.79-.06-.51-.03-.86-.42-.88-1-.01-.49.01-.99.05-1.48.03-.33.29-.57.57-.59,1.09-.08,2.18-.1,3.27-.14.57-.03.96-.38.98-.9.03-.79.03-1.59.05-2.38.01-.5.04-.99.07-1.49.02-.35.42-.79.76-.81.69-.05,1.38-.1,2.08-.1,1.22.01,1.56.37,1.59,1.61.03,1.09.04,2.18.08,3.28.01.39.38.75.76.77,1.39.04,2.78.05,4.17.09.57.02.95.37.97.91.02.49,0,.99-.03,1.48-.02.35-.43.71-.81.75-.4.03-.79.06-1.19.07-.89.02-1.79,0-2.68.03-.86.02-1.25.4-1.25,1.3-.01,4.18,0,8.35-.01,12.53,0,.1,0,.2,0,.3.1,2.06.89,2.9,2.88,3.04.79.05,1.59.07,2.38.11.37.02.74.4.75.79.01.59,0,1.19-.02,1.78,0,.34-.26.61-.52.64-1.99.25-3.97.23-5.89-.46-2.02-.73-3.32-2.09-3.81-4.22-.2-.88-.29-1.76-.28-2.66.01-1.89,0-3.78,0-5.67Z"/>
  <path class="cls-15" d="M266.95,743.23c-.2.2-.56.37-.59.59-.11.88-.16,1.77-.16,2.66-.01,8.04,0,16.09,0,24.13,0,.89,0,1.79-.03,2.68,0,.29-.08.59-.19.86-.07.16-.24.29-.39.41-.07.06-.18.1-.28.1-3.87.09-3.71.58-3.7-3.25,0-9.14,0-18.27,0-27.41,0-.79.04-1.58.08-2.38.02-.36.41-.72.79-.75.2-.02.39-.05.59-.05,2.18,0,4.37,0,6.55,0,.41,0,.77.11,1.01.48-1.07.94-2.63.94-3.68,1.92Z"/>
  <path class="cls-3" d="M266.95,743.23c.03-.29.04-.59.1-.88.12-.59.45-.93.94-.96.88-.04,1.76-.06,2.65-.09.36.23.46.6.58.98,1.37,4.64,2.76,9.27,4.14,13.9,1.63,5.49,3.25,10.97,4.87,16.46.16.55.49.82,1.06.82.23.32.51.57.93.63,1.18.18,2.31,0,3.39-.52-.05.51-.18,1.05-.79,1.06-2.67.03-5.34.02-8.01,0-.43,0-.72-.29-.85-.7-.44-1.42-.89-2.83-1.31-4.25-2.46-8.24-4.91-16.49-7.36-24.74-.17-.56-.22-1.16-.33-1.74Z"/>
  <path class="cls-3" d="M457.41,757.8c0,4.87,0,9.74,0,14.61,0,.59-.05,1.19-.14,1.77-.02.15-.24.36-.41.4-1.08.21-2.17.24-3.24-.02-.15-.04-.35-.26-.37-.43-.09-.59-.14-1.18-.15-1.77-.01-4.27,0-8.55,0-12.82,0-5.47,0-10.93,0-16.4,0-.59.07-1.18.17-1.77.03-.16.23-.38.39-.41,1.08-.21,2.17-.23,3.24.02.15.04.35.27.37.43.08.59.13,1.18.13,1.78,0,4.87,0,9.74,0,14.61Z"/>
  <path class="cls-3" d="M336.19,753.75c1.14-2.3,3.22-3.17,5.57-3.38,3.98-.36,7.81,1.79,8.77,7.08.11.58.13,1.19.13,1.78.01,4.67.01,9.33,0,14,0,.29,0,.62-.13.87-.12.23-.4.51-.63.52-.99.04-1.98.01-2.96-.04-.15,0-.38-.23-.41-.38-.09-.48-.15-.98-.15-1.47-.01-3.57,0-7.15,0-10.72,0-.79-.02-1.59-.03-2.38-.01-1.11-.32-2.17-.77-3.16-.7-1.56-1.92-2.47-3.64-2.72-1.73-.26-3.35.06-4.9.81-.71.18-.98-.09-.84-.8Z"/>
  <path class="cls-3" d="M336.19,753.75c.18.38.46.64.84.8-.28.41-.57.81-.84,1.23-.7,1.11-1.1,2.33-1.13,3.65-.02.89-.04,1.79-.04,2.68,0,3.38,0,6.75,0,10.13,0,.59,0,1.2-.11,1.78-.04.23-.35.55-.57.57-.78.1-1.58.11-2.37.11-.88,0-1.21-.37-1.25-1.27-.01-.3-.02-.6-.02-.89,0-6.56,0-13.11,0-19.67,0-.49.05-.99.15-1.47.03-.16.24-.38.4-.41,1.08-.17,2.17-.24,3.25.02.16.04.37.24.39.39.08.59.11,1.18.14,1.77.07,1.2.06,1.2,1.17.59Z"/>
  <path class="cls-14" d="M656.84,762.83c0,3.28,0,6.55,0,9.83,0,.49-.05.99-.13,1.48-.03.17-.22.4-.37.43-1.08.24-2.17.21-3.25.02-.16-.03-.35-.24-.41-.4-.1-.27-.13-.58-.13-.88,0-7.05,0-14.1,0-21.15,0-.2-.01-.42.08-.58.14-.24.32-.53.55-.6.36-.12.78-.11,1.18-.11,2.46-.03,2.47-.03,2.48,2.43.01,3.18,0,6.35,0,9.53Z"/>
  <path class="cls-18" d="M317.72,763.11c0,3.18,0,6.36,0,9.54,0,.49-.04.99-.12,1.48-.03.17-.22.4-.37.43-1.08.26-2.17.2-3.25.04-.16-.02-.36-.24-.41-.4-.1-.38-.16-.78-.17-1.17-.02-1.39-.01-2.78-.01-4.17,0-4.97,0-9.93,0-14.9,0-.79.02-1.59.12-2.37.03-.23.32-.46.54-.62.14-.1.38-.09.58-.09,3.21-.03,3.11-.32,3.1,3,0,3.08,0,6.16,0,9.24Z"/>
  <path class="cls-8" d="M317.79,743.82c0,.69.01,1.38,0,2.07,0,.39-.36.76-.72.8-.1,0-.19.05-.29.05-4.05.03-3.7.48-3.7-3.56,0-.49.03-.98.06-1.48.02-.38.38-.77.73-.8.29-.03.59-.08.88-.08,3.2,0,3.12-.23,3.04,3Z"/>
  <path class="cls-8" d="M657,743.4c0,3.43.09,3.37-2.72,3.35-.49,0-.98-.06-1.45-.15-.16-.03-.32-.22-.41-.37-.1-.16-.14-.36-.16-.55-.03-.39-.04-.78-.04-1.18-.02-4.13-.16-3.78,3.91-3.62.35.01.75.4.77.76.05.78.08,1.57.09,1.76Z"/>
  <path class="cls-9" d="M384.65,41.1c-.56.26-.59.8-.69,1.3-.17-.32-.41-.62-.51-.96-.2-.67-.07-1.19.23-1.19.54.01.77.42.97.85Z"/>
  <path class="cls-7" d="M378.41,256.65c-.09-.02-.21-.01-.28-.07-.39-.3-.81-.58-1.15-.92-2.75-2.73-5.49-5.48-8.23-8.22-.28-.28-.58-.56-.77-.9-.12-.22-.14-.58-.05-.82.09-.26.33-.49.54-.7.55-.57,1.12-1.13,1.68-1.7,17.08-17.08,34.17-34.17,51.25-51.25.49-.49.98-.99,1.48-1.47.99-.97,1.19-.98,2.18,0,2.96,2.95,5.91,5.9,8.86,8.86.95.96.93,1.12-.08,2.17-.14.14-.28.28-.42.42-.28.28-.56.56-.84.84-17.22,17.22-34.45,34.45-51.67,51.67-.63.63-1.28,1.25-1.94,1.85-.14.12-.36.16-.54.23Z"/>
  <path class="cls-7" d="M568.19,289.71c-.02.09-.02.19-.07.27-.1.17-.19.36-.32.5-3.23,3.24-6.47,6.47-9.71,9.7-.41.41-.83.37-1.29-.06-.14-.14-.29-.28-.43-.42-.35-.35-.7-.7-1.05-1.05-17.23-17.23-34.45-34.45-51.68-51.68-.56-.56-1.12-1.13-1.66-1.71-.27-.29-.25-.75.04-1.07.07-.07.13-.15.2-.22,3.09-3.1,6.18-6.19,9.28-9.28.14-.14.3-.26.45-.38.3-.26.74-.23,1.07.08.57.55,1.14,1.11,1.71,1.67,17.16,17.16,34.31,34.31,51.47,51.47.63.63,1.24,1.29,1.85,1.94.07.07.1.17.15.26Z"/>
  <path class="cls-7" d="M423.21,234.15c.23.08.46.09.59.21.52.46,1.02.94,1.51,1.43,17.29,17.28,34.57,34.56,51.85,51.85.56.56,1.1,1.15,1.63,1.73.25.27.22.79-.07,1.09-3.29,3.31-6.6,6.61-9.9,9.91-.22.22-.57.23-.8.04-.23-.19-.46-.38-.67-.58-.43-.41-.85-.84-1.27-1.26-17.14-17.14-34.29-34.28-51.43-51.43-.63-.63-1.23-1.29-1.84-1.95-.17-.18-.13-.61.04-.83.13-.15.24-.32.38-.46,3.09-3.09,6.18-6.19,9.27-9.27.2-.2.48-.33.69-.47Z"/>
  <path class="cls-7" d="M523.72,289.67c-.08.22-.09.45-.21.58-.67.73-1.35,1.46-2.05,2.16-14.62,14.63-29.25,29.25-43.88,43.88-2.6,2.6-5.2,5.21-7.81,7.8-.42.42-.87.81-1.32,1.21-.18.16-.63.13-.83-.04-.15-.13-.31-.25-.45-.39-3.03-3.02-6.05-6.05-9.07-9.07-.14-.14-.27-.29-.4-.44-.27-.31-.31-.81-.05-1.09.47-.51.95-1.01,1.44-1.51,17.37-17.37,34.73-34.74,52.1-52.11.42-.42.84-.85,1.28-1.25.4-.38.89-.37,1.3.04,3.17,3.16,6.33,6.33,9.48,9.5.2.2.32.49.46.72Z"/>
  <path class="cls-7" d="M423.3,145.03c.26.1.48.12.61.25.52.46,1.01.95,1.51,1.44,17.3,17.3,34.59,34.6,51.88,51.9.49.49.97,1,1.44,1.51.28.3.3.81.06,1.09-.26.3-.51.61-.79.89-2.74,2.75-5.48,5.49-8.23,8.23-.28.28-.59.53-.89.79-.29.25-.76.21-1.09-.08-.22-.2-.45-.39-.66-.6-.43-.42-.85-.84-1.27-1.26-17.02-17.02-34.03-34.03-51.04-51.05-.7-.7-1.37-1.44-2.02-2.18-.1-.11-.07-.38-.02-.56.05-.18.19-.35.33-.49,3.16-3.17,6.32-6.33,9.5-9.48.19-.19.49-.28.7-.39Z"/>
  <path class="cls-7" d="M610.74,291.66c-.06.28-.04.52-.15.65-.6.67-1.21,1.32-1.84,1.95-7.17,7.18-14.35,14.35-21.52,21.53-9.35,9.36-18.7,18.72-28.06,28.07-2.06,2.06-1.74,2.18-3.87.04-2.53-2.53-5.07-5.06-7.59-7.6-.35-.35-.67-.73-1-1.1-.18-.2-.17-.62.02-.82.4-.44.8-.88,1.22-1.3,16.81-16.81,33.62-33.62,50.43-50.43.42-.42.87-.82,1.31-1.22.22-.2.62-.22.82-.05.23.19.47.37.68.58,2.96,2.95,5.91,5.9,8.86,8.86.27.27.5.6.7.85Z"/>
  <path class="cls-7" d="M521.8,202.65c-.56.62-1.08,1.22-1.63,1.77-3.58,3.59-7.17,7.17-10.75,10.76-12.87,12.87-25.73,25.73-38.6,38.6-.7.7-1.41,1.4-2.14,2.08-.37.35-.94.32-1.34-.04-.37-.33-.73-.67-1.09-1.02-2.53-2.53-5.07-5.06-7.59-7.6-.42-.42-.8-.88-1.15-1.35-.09-.12-.08-.39,0-.54.13-.26.32-.5.52-.72.48-.51.97-.99,1.47-1.49,16.31-16.31,32.62-32.62,48.93-48.93.56-.56,1.12-1.13,1.7-1.67.63-.59,1.08-.55,1.79.11.07.07.15.13.22.2,2.95,2.95,5.91,5.9,8.86,8.86.28.28.5.6.8.98Z"/>
  <path class="cls-7" d="M155.19,761.84c-.17,1.18-.29,2.47-.56,3.72-.21.96-.64,1.88-1.28,2.66-.92,1.12-2.06,1.8-3.54,1.93-2.59.22-4.69-.63-5.88-3.51-.76-1.86-1.04-3.83-.87-5.82.13-1.47.34-2.95.99-4.32.48-1.01,1.14-1.86,2.08-2.46,2.17-1.39,5.94-1.14,7.55,1.72.43.77.82,1.6,1.02,2.45.27,1.15.33,2.35.5,3.64Z"/>
  <path class="cls-5" d="M58.61,759.13c-1.59-.04-3.17-.07-4.76-.12-.35-.01-.65-.49-.6-.87.2-1.54.89-2.84,2.1-3.82,1.62-1.3,3.47-1.44,5.34-.69,2.02.82,3.03,2.46,3.35,4.57.06.39-.27.83-.65.83-1.59.01-3.18,0-4.77,0,0,.03,0,.06,0,.09Z"/>
  <path class="cls-4" d="M112.72,759.06c-1.59,0-3.17,0-4.76,0-.28,0-.66-.31-.66-.51.13-3.01,2.4-5.27,5.31-5.33,2.34-.04,3.96,1.05,5,3.09.22.44.35.93.51,1.4.29.87-.03,1.35-.93,1.36-1.49.02-2.98,0-4.47,0,0,0,0-.01,0-.02Z"/>
  <path class="cls-7" d="M380.57,762.87c-.02,1.69-.16,3.36-.87,4.94-.41.91-.93,1.75-1.67,2.43-.97.9-2.1,1.44-3.44,1.59-4.66.54-7.02-2.22-7.88-5.91-.04-.19-.06-.39-.08-.59-.22-1.68-.2-3.35-.02-5.04.1-.9.35-1.75.71-2.56,1.14-2.6,3.1-4.02,5.99-4.08,3-.06,5.1,1.3,6.35,4,.68,1.46.91,2.88.9,5.22Z"/>
  <path class="cls-17" d="M512.93,760.81c-1.68,0-3.36,0-5.04,0-.29,0-.59-.04-.88-.07-.36-.04-.7-.47-.68-.83.14-1.86.9-3.43,2.21-4.72.79-.78,1.76-1.29,2.88-1.4.69-.07,1.38-.13,2.07-.11,2.14.08,3.77,1.07,4.89,2.88.63,1.01,1.14,2.08,1.14,3.32,0,.38-.31.83-.66.85-1.18.04-2.37.07-3.55.08-.79.01-1.58,0-2.37,0h0Z"/>
  <path class="cls-14" d="M296.25,757.76c0-4.17,0-8.34,0-12.51,0-.79,0-1.59.02-2.38.03-1.19.46-1.56,1.68-1.5.72.03,1.19.42,1.22,1.03.04.59.06,1.19.06,1.78,0,9.03,0,18.06,0,27.1,0,.69-.03,1.39-.14,2.07-.04.23-.31.51-.55.62-.56.27-1.16.22-1.73-.04-.17-.07-.34-.25-.4-.42-.1-.27-.15-.58-.15-.87-.02-1.39-.02-2.78-.02-4.17,0-3.57,0-7.15,0-10.72Z"/>
</svg>