<svg width="358" height="382" viewBox="0 0 358 382" fill="none" xmlns="http://www.w3.org/2000/svg">
<g clip-path="url(#clip0_570_398)">
<path d="M17.2532 367.852H26.2232V377.571H23.2647V373.504C22.5618 375.608 20.9356 377.844 17.4158 377.844C13.2612 377.844 9.44238 374.564 9.44238 368.986C9.44238 363.408 12.9465 360.128 17.9613 360.128C22.1421 360.128 24.9643 362.117 25.9819 365.78H22.2523C21.5966 364.064 20.217 362.956 17.9613 362.956C15.0238 362.956 13.1248 365.328 13.1248 368.991C13.1248 372.654 15.092 375.026 18.1187 375.026C20.7835 375.026 22.6142 373.441 22.7034 370.707H17.2584V367.858L17.2532 367.852Z" fill="#090909"/>
<path d="M43.392 372.46H34.5583C34.8048 374.517 35.8697 375.488 37.2913 375.488C38.6237 375.488 39.2794 374.921 39.7095 373.93H43.1874C42.3743 376.527 40.2026 377.839 37.2703 377.839C33.4515 377.839 31.0332 375.194 31.0332 371.421C31.0332 367.648 33.5406 365.024 37.2703 365.024C40.9999 365.024 43.4602 367.622 43.4602 371.489C43.4602 371.783 43.4392 372.124 43.392 372.46ZM34.5793 370.157H39.9351C39.7567 368.414 38.7128 367.375 37.2703 367.375C35.8277 367.375 34.873 368.236 34.5793 370.157Z" fill="#090909"/>
<path d="M48.3594 377.566V360.391H51.8163V377.566H48.3594Z" fill="#090909"/>
<path d="M69.1009 372.46H60.2673C60.5138 374.517 61.5787 375.488 63.0003 375.488C64.3326 375.488 64.9884 374.921 65.4185 373.93H68.8964C68.0833 376.527 65.9116 377.839 62.9793 377.839C59.1604 377.839 56.7422 375.194 56.7422 371.421C56.7422 367.648 59.2496 365.024 62.9793 365.024C66.7089 365.024 69.1691 367.622 69.1691 371.489C69.1691 371.783 69.1482 372.124 69.1009 372.46ZM60.2882 370.157H65.6441C65.4657 368.414 64.4218 367.375 62.9793 367.375C61.5367 367.375 60.582 368.236 60.2882 370.157Z" fill="#090909"/>
<path d="M86.6317 371.442C86.6317 375.126 84.5964 377.839 81.5696 377.839C79.6707 377.839 78.16 376.684 77.5043 375.105V382H74.0684V365.297H77.5043V368.052C78.0446 366.447 79.4242 365.024 81.5696 365.024C84.5964 365.024 86.6317 367.758 86.6317 371.442ZM83.1066 371.442C83.1066 368.934 82.1099 367.375 80.2373 367.375C78.3646 367.375 77.3679 368.934 77.3679 371.442C77.3679 373.951 78.3593 375.488 80.2373 375.488C82.1152 375.488 83.1066 373.93 83.1066 371.442Z" fill="#090909"/>
<path d="M103.009 369.794V377.571H99.5519V370.545C99.5519 368.42 98.7388 367.449 97.291 367.449C95.8432 367.449 95.0301 368.42 95.0301 370.592V377.577H91.5732V360.401H95.0091V367.816C95.5757 366.279 96.7717 365.035 98.9172 365.035C101.787 365.035 103.009 367.092 103.009 369.805V369.794Z" fill="#090909"/>
<path d="M116.202 365.297H119.659V377.571H116.249V375.152C115.682 376.621 114.534 377.844 112.388 377.844C109.54 377.844 108.344 375.787 108.344 373.074V365.297H111.801V372.324C111.801 374.449 112.593 375.42 114.014 375.42C115.436 375.42 116.207 374.381 116.207 372.276V365.292L116.202 365.297Z" fill="#090909"/>
<path d="M151.919 377.566H149.784V361.572L145.031 377.566H140.594L135.841 361.572V377.566H133.706V361.509H138.06L142.813 377.503L147.565 361.509H151.919V377.566Z" fill="#090909"/>
<path d="M158.193 364.3V361.509H160.433V364.3H158.193ZM158.277 377.566V366.242H160.349V377.566H158.277Z" fill="#090909"/>
<path d="M176.039 370.513V377.571H173.967V370.828C173.967 368.524 172.913 367.532 171.266 367.532C169.619 367.532 168.564 368.545 168.564 370.87V377.571H166.492V366.247H168.564V368.55C169.073 367.217 170.169 366.016 172.116 366.016C174.67 366.016 176.045 367.983 176.045 370.518L176.039 370.513Z" fill="#090909"/>
<path d="M190.171 361.509H192.243V377.566H190.171V375.094C189.473 376.721 187.868 377.797 186.179 377.797C183.435 377.797 181.363 375.388 181.363 371.899C181.363 368.409 183.456 366 186.179 366C188.293 366 189.641 367.459 190.171 368.981V361.498V361.509ZM190.26 371.904C190.26 369.243 189.011 367.527 186.861 367.527C184.71 367.527 183.483 369.238 183.483 371.904C183.483 374.57 184.71 376.28 186.861 376.28C189.011 376.28 190.26 374.57 190.26 371.904Z" fill="#090909"/>
<path d="M203.143 363.073C202.11 363.073 201.496 363.408 201.496 364.657V366.242H204.413V367.806H201.496V377.566H199.424V367.806H197.079V366.242H199.424V364.657C199.424 362.48 200.945 361.509 202.928 361.509H204.407V363.073H203.138H203.143Z" fill="#090909"/>
<path d="M216.431 366.242H218.503V377.566H216.431V375.304C215.943 376.595 214.826 377.797 212.948 377.797C210.393 377.797 209.061 375.829 209.061 373.294V366.236H211.133V372.979C211.133 375.262 212.145 376.275 213.792 376.275C215.439 376.275 216.431 375.241 216.431 372.937V366.236V366.242Z" fill="#090909"/>
<path d="M224.646 377.566V361.509H226.718V377.566H224.646Z" fill="#090909"/>
<path d="M242.412 370.513V377.571H240.34V370.828C240.34 368.524 239.286 367.532 237.639 367.532C235.992 367.532 234.937 368.545 234.937 370.87V377.571H232.865V366.247H234.937V368.55C235.446 367.217 236.542 366.016 238.489 366.016C241.043 366.016 242.418 367.983 242.418 370.518L242.412 370.513Z" fill="#090909"/>
<path d="M258.385 372.518H249.829C249.997 374.969 251.245 376.281 253.123 376.281C254.77 376.281 255.636 375.52 256.061 374.25H258.175C257.519 376.658 255.683 377.802 253.128 377.802C249.708 377.802 247.741 375.31 247.741 371.904C247.741 368.498 249.75 366.006 253.108 366.006C256.276 366.006 258.432 368.247 258.432 371.731C258.432 371.941 258.411 372.24 258.39 372.513L258.385 372.518ZM249.85 370.954H256.313C256.187 368.923 254.959 367.533 253.102 367.533C251.245 367.533 250.102 368.693 249.85 370.954Z" fill="#090909"/>
<path d="M262.985 374.249H265.099C265.414 375.855 266.642 376.28 267.78 376.28C269.553 376.28 270.46 375.603 270.46 374.569C270.46 373.535 269.868 373.068 268.179 372.711L266.594 372.376C264.627 371.951 263.279 371.064 263.279 369.332C263.279 367.322 265.267 366.016 267.738 366.016C269.936 366.016 271.814 367.028 272.323 369.08H270.209C269.894 368.088 268.834 367.537 267.738 367.537C266.51 367.537 265.33 368.109 265.33 369.122C265.33 370.03 266.07 370.35 267.591 370.665L269.175 371.001C271.541 371.51 272.511 372.565 272.511 374.317C272.511 376.495 270.571 377.802 267.78 377.802C265.267 377.802 263.3 376.574 262.985 374.249Z" fill="#090909"/>
<path d="M277.033 374.249H279.147C279.462 375.855 280.689 376.28 281.828 376.28C283.601 376.28 284.508 375.603 284.508 374.569C284.508 373.535 283.916 373.068 282.226 372.711L280.642 372.376C278.675 371.951 277.327 371.064 277.327 369.332C277.327 367.322 279.315 366.016 281.786 366.016C283.984 366.016 285.862 367.028 286.37 369.08H284.256C283.942 368.088 282.882 367.537 281.786 367.537C280.558 367.537 279.378 368.109 279.378 369.122C279.378 370.03 280.118 370.35 281.639 370.665L283.223 371.001C285.589 371.51 286.559 372.565 286.559 374.317C286.559 376.495 284.618 377.802 281.828 377.802C279.315 377.802 277.348 376.574 277.033 374.249Z" fill="#090909"/>
<path d="M299.49 369.537C299.49 364.594 302.659 361.272 306.992 361.272C310.669 361.272 313.286 363.513 314.11 366.725H311.891C311.13 364.631 309.567 363.067 306.992 363.067C303.802 363.067 301.709 365.728 301.709 369.532C301.709 373.337 303.907 375.997 306.929 375.997C309.525 375.997 311.214 374.643 312.022 372.319H314.241C313.166 375.955 310.564 377.792 306.934 377.792C302.711 377.792 299.501 374.496 299.501 369.527L299.49 369.537Z" fill="#090909"/>
<path d="M319.329 364.3V361.509H321.569V364.3H319.329ZM319.413 377.566V366.242H321.485V377.566H319.413Z" fill="#090909"/>
<path d="M333.629 376.002V377.566H332.15C330.183 377.566 328.646 376.616 328.646 374.46V367.806H326.259V366.242H328.646V363.561H330.718V366.242H333.592V367.806H330.718V374.46C330.718 375.667 331.331 376.002 332.365 376.002H333.634H333.629Z" fill="#090909"/>
<path d="M346.428 366.241H348.584L343.385 381.711H341.23L343.045 376.322H341.035L337.106 366.241H339.241L343.107 376.133L346.423 366.241H346.428Z" fill="#090909"/>
<path d="M212.769 103.823L186.468 130.134" stroke="#090909" stroke-width="10" stroke-miterlimit="10"/>
<path d="M241.227 75.3545L228.16 88.4314" stroke="#090909" stroke-width="10" stroke-miterlimit="10"/>
<path d="M137.546 179.073L96.0742 137.586" stroke="#090909" stroke-width="10" stroke-miterlimit="10"/>
<path d="M96.0791 96.0928L179.013 179.072" stroke="#090909" stroke-width="10" stroke-miterlimit="10"/>
<path d="M191.954 109.029L137.546 54.6064" stroke="#090909" stroke-width="10" stroke-miterlimit="10"/>
<path d="M233.426 150.521L207.355 124.436" stroke="#090909" stroke-width="10" stroke-miterlimit="10"/>
<path d="M261.968 179.073L248.775 165.875" stroke="#090909" stroke-width="10" stroke-miterlimit="10"/>
<path d="M137.546 54.6064H190.128" stroke="#090909" stroke-width="10" stroke-miterlimit="10"/>
<path d="M54.6025 137.58H167.898" stroke="#090909" stroke-width="10" stroke-miterlimit="10"/>
<path d="M211.767 63.3379L179.857 95.2587" stroke="#090909" stroke-width="10" stroke-miterlimit="10"/>
<path d="M324.165 158.324L311.072 171.422" stroke="#090909" stroke-width="10" stroke-miterlimit="10"/>
<path d="M191.923 150.484L137.552 96.0928" stroke="#090909" stroke-width="10" stroke-miterlimit="10"/>
<path d="M220.49 179.067L207.303 165.875" stroke="#090909" stroke-width="10" stroke-miterlimit="10"/>
<path d="M96.0747 179.067L54.6025 137.58" stroke="#090909" stroke-width="10" stroke-miterlimit="10"/>
<path d="M13.1514 13.1191L96.0799 96.0933" stroke="#090909" stroke-width="10" stroke-miterlimit="10"/>
<path d="M294.68 146.333L269.616 171.411" stroke="#090909" stroke-width="10" stroke-miterlimit="10"/>
<path d="M96.0742 179.067L96.0847 13.1191" stroke="#090909" stroke-width="10" stroke-miterlimit="10"/>
<path d="M233.426 109.029L207.355 82.9482" stroke="#090909" stroke-width="10" stroke-miterlimit="10"/>
<path d="M274.867 150.484L248.791 124.403" stroke="#090909" stroke-width="10" stroke-miterlimit="10"/>
<path d="M303.435 179.067L290.231 165.859" stroke="#090909" stroke-width="10" stroke-miterlimit="10"/>
<path d="M212.78 145.3L179.019 179.068" stroke="#090909" stroke-width="10" stroke-miterlimit="10"/>
<path d="M253.24 104.82L228.16 129.914" stroke="#090909" stroke-width="10" stroke-miterlimit="10"/>
<path d="M344.902 13.1191L261.963 96.0985" stroke="#090909" stroke-width="10" stroke-miterlimit="10"/>
<path d="M179.013 96.0984L13.1348 96.0879" stroke="#090909" stroke-width="10" stroke-miterlimit="10"/>
<path d="M254.205 145.336L228.16 171.395" stroke="#090909" stroke-width="10" stroke-miterlimit="10"/>
<path d="M282.694 116.837L269.616 129.924" stroke="#090909" stroke-width="10" stroke-miterlimit="10"/>
<path d="M96.0742 262.047V345.021" stroke="#090909" stroke-width="10" stroke-miterlimit="10"/>
<path d="M261.963 345.021V262.047H344.902L261.963 345.021Z" stroke="#090909" stroke-width="10" stroke-linejoin="bevel"/>
<path d="M96.0741 262.047H13.1299" stroke="#090909" stroke-width="10" stroke-miterlimit="10"/>
<path d="M261.958 262.047H179.014" stroke="#090909" stroke-width="10" stroke-miterlimit="10"/>
<path d="M179.017 13.1222L13.1328 179.066L179.021 345.014L344.905 179.07L179.017 13.1222Z" stroke="#090909" stroke-width="10" stroke-linejoin="bevel"/>
<path d="M220.485 179.067V303.534" stroke="#090909" stroke-width="10" stroke-miterlimit="10"/>
<path d="M261.957 179.067V262.047" stroke="#090909" stroke-width="10" stroke-miterlimit="10"/>
<path d="M303.43 179.067V220.56" stroke="#090909" stroke-width="10" stroke-miterlimit="10"/>
<path d="M179.008 13.1191C193.832 40.7789 193.832 68.4335 179.008 96.0933C164.189 123.753 164.189 151.413 179.008 179.067H178.997C193.821 206.727 193.821 234.382 178.997 262.041C164.178 289.701 164.178 317.361 178.997 345.016" stroke="#090909" stroke-width="10" stroke-miterlimit="10"/>
<path d="M344.901 179.067L13.1348 179.073" stroke="#090909" stroke-width="10" stroke-miterlimit="10"/>
<path d="M148.169 262.047H178.998" stroke="#090909" stroke-width="10" stroke-linejoin="bevel"/>
<path d="M96.0537 262.047H126.568" stroke="#090909" stroke-width="10" stroke-linejoin="bevel"/>
<path d="M96.0537 190.696V262.047" stroke="#090909" stroke-width="10" stroke-linejoin="bevel"/>
<path d="M137.53 231.364V303.534" stroke="#090909" stroke-width="10" stroke-miterlimit="10"/>
<path d="M137.53 54.6006V209.755" stroke="#090909" stroke-width="10" stroke-miterlimit="10"/>
<path d="M137.53 303.534H220.464" stroke="#090909" stroke-width="10" stroke-miterlimit="10"/>
<path d="M54.5811 220.56V137.591" stroke="#090909" stroke-width="10" stroke-miterlimit="10"/>
<path d="M106.859 220.555L303.414 220.56" stroke="#090909" stroke-width="10" stroke-miterlimit="10"/>
<path d="M54.5859 220.555H85.2573" stroke="#090909" stroke-width="10" stroke-miterlimit="10"/>
<path d="M344.886 345.021V13.1191H13.1143V345.257L344.886 345.021Z" stroke="#090909" stroke-width="10" stroke-miterlimit="10"/>
</g>
<defs>
<clipPath id="clip0_570_398">
<rect width="358" height="382" fill="white"/>
</clipPath>
</defs>
</svg>
