<svg width="449" height="449" viewBox="0 0 449 449" fill="none" xmlns="http://www.w3.org/2000/svg">
<path d="M269.116 124.981L234.366 159.695" stroke="white" stroke-width="10" stroke-miterlimit="10"/>
<path d="M306.716 87.4208L289.451 104.674" stroke="white" stroke-width="10" stroke-miterlimit="10"/>
<path d="M169.73 224.263L114.936 169.526" stroke="white" stroke-width="10" stroke-miterlimit="10"/>
<path d="M114.943 114.782L224.517 224.263" stroke="white" stroke-width="10" stroke-miterlimit="10"/>
<path d="M241.615 131.849L169.73 60.0455" stroke="white" stroke-width="10" stroke-miterlimit="10"/>
<path d="M296.41 186.592L261.964 152.176" stroke="white" stroke-width="10" stroke-miterlimit="10"/>
<path d="M334.12 224.263L316.689 206.85" stroke="white" stroke-width="10" stroke-miterlimit="10"/>
<path d="M169.73 60.0455H239.204" stroke="white" stroke-width="10" stroke-miterlimit="10"/>
<path d="M60.1418 169.519H209.831" stroke="white" stroke-width="10" stroke-miterlimit="10"/>
<path d="M267.793 71.5662L225.633 113.682" stroke="white" stroke-width="10" stroke-miterlimit="10"/>
<path d="M416.297 196.888L398.998 214.169" stroke="white" stroke-width="10" stroke-miterlimit="10"/>
<path d="M241.574 186.544L169.737 114.782" stroke="white" stroke-width="10" stroke-miterlimit="10"/>
<path d="M279.318 224.256L261.895 206.85" stroke="white" stroke-width="10" stroke-miterlimit="10"/>
<path d="M114.936 224.256L60.1418 169.519" stroke="white" stroke-width="10" stroke-miterlimit="10"/>
<path d="M5.37531 5.30865L114.943 114.782" stroke="white" stroke-width="10" stroke-miterlimit="10"/>
<path d="M377.339 181.068L344.224 214.155" stroke="white" stroke-width="10" stroke-miterlimit="10"/>
<path d="M114.936 224.256L114.95 5.30865" stroke="white" stroke-width="10" stroke-miterlimit="10"/>
<path d="M296.41 131.849L261.964 97.4391" stroke="white" stroke-width="10" stroke-miterlimit="10"/>
<path d="M351.162 186.544L316.71 152.134" stroke="white" stroke-width="10" stroke-miterlimit="10"/>
<path d="M388.907 224.256L371.462 206.83" stroke="white" stroke-width="10" stroke-miterlimit="10"/>
<path d="M269.13 179.704L224.524 224.256" stroke="white" stroke-width="10" stroke-miterlimit="10"/>
<path d="M322.587 126.296L289.451 159.404" stroke="white" stroke-width="10" stroke-miterlimit="10"/>
<path d="M443.694 5.30865L334.113 114.789" stroke="white" stroke-width="10" stroke-miterlimit="10"/>
<path d="M224.517 114.789L5.35449 114.775" stroke="white" stroke-width="10" stroke-miterlimit="10"/>
<path d="M323.862 179.752L289.451 214.134" stroke="white" stroke-width="10" stroke-miterlimit="10"/>
<path d="M361.503 142.151L344.224 159.418" stroke="white" stroke-width="10" stroke-miterlimit="10"/>
<path d="M114.936 333.737V443.21" stroke="white" stroke-width="10" stroke-miterlimit="10"/>
<path d="M334.113 443.21V333.737H443.694L334.113 443.21Z" stroke="white" stroke-width="10" stroke-linejoin="bevel"/>
<path d="M114.936 333.737H5.34756" stroke="white" stroke-width="10" stroke-miterlimit="10"/>
<path d="M334.106 333.737H224.517" stroke="white" stroke-width="10" stroke-miterlimit="10"/>
<path d="M224.523 5.31317L5.35114 224.255L224.527 443.202L443.699 224.26L224.523 5.31317Z" stroke="white" stroke-width="10" stroke-linejoin="bevel"/>
<path d="M279.312 224.256V388.474" stroke="white" stroke-width="10" stroke-miterlimit="10"/>
<path d="M334.106 224.256V333.737" stroke="white" stroke-width="10" stroke-miterlimit="10"/>
<path d="M388.9 224.256V279" stroke="white" stroke-width="10" stroke-miterlimit="10"/>
<path d="M224.51 5.30865C244.097 41.8022 244.097 78.2888 224.51 114.782C204.931 151.276 204.931 187.769 224.51 224.256H224.497C244.083 260.75 244.083 297.236 224.497 333.73C204.917 370.223 204.917 406.717 224.497 443.203" stroke="white" stroke-width="10" stroke-miterlimit="10"/>
<path d="M443.694 224.256L5.35449 224.263" stroke="white" stroke-width="10" stroke-miterlimit="10"/>
<path d="M183.765 333.737H224.497" stroke="white" stroke-width="10" stroke-linejoin="bevel"/>
<path d="M114.908 333.737H155.224" stroke="white" stroke-width="10" stroke-linejoin="bevel"/>
<path d="M114.908 239.598V333.737" stroke="white" stroke-width="10" stroke-linejoin="bevel"/>
<path d="M169.709 293.255V388.474" stroke="white" stroke-width="10" stroke-miterlimit="10"/>
<path d="M169.709 60.0386V264.744" stroke="white" stroke-width="10" stroke-miterlimit="10"/>
<path d="M169.709 388.474H279.284" stroke="white" stroke-width="10" stroke-miterlimit="10"/>
<path d="M60.114 279V169.533" stroke="white" stroke-width="10" stroke-miterlimit="10"/>
<path d="M129.185 278.993L388.879 279" stroke="white" stroke-width="10" stroke-miterlimit="10"/>
<path d="M60.1209 278.993H100.645" stroke="white" stroke-width="10" stroke-miterlimit="10"/>
<path d="M443.673 443.21V5.30865H5.32678V443.522L443.673 443.21Z" stroke="white" stroke-width="10" stroke-miterlimit="10"/>
</svg>
